G04 #@! TF.GenerationSoftware,KiCad,Pcbnew,7.0.5-7.0.5~ubuntu22.04.1*
G04 #@! TF.CreationDate,2023-06-19T14:44:42+01:00*
G04 #@! TF.ProjectId,logic_board,6c6f6769-635f-4626-9f61-72642e6b6963,rev?*
G04 #@! TF.SameCoordinates,Original*
G04 #@! TF.FileFunction,Soldermask,Top*
G04 #@! TF.FilePolarity,Negative*
%FSLAX46Y46*%
G04 Gerber Fmt 4.6, Leading zero omitted, Abs format (unit mm)*
G04 Created by KiCad (PCBNEW 7.0.5-7.0.5~ubuntu22.04.1) date 2023-06-19 14:44:42*
%MOMM*%
%LPD*%
G01*
G04 APERTURE LIST*
G04 Aperture macros list*
%AMRoundRect*
0 Rectangle with rounded corners*
0 $1 Rounding radius*
0 $2 $3 $4 $5 $6 $7 $8 $9 X,Y pos of 4 corners*
0 Add a 4 corners polygon primitive as box body*
4,1,4,$2,$3,$4,$5,$6,$7,$8,$9,$2,$3,0*
0 Add four circle primitives for the rounded corners*
1,1,$1+$1,$2,$3*
1,1,$1+$1,$4,$5*
1,1,$1+$1,$6,$7*
1,1,$1+$1,$8,$9*
0 Add four rect primitives between the rounded corners*
20,1,$1+$1,$2,$3,$4,$5,0*
20,1,$1+$1,$4,$5,$6,$7,0*
20,1,$1+$1,$6,$7,$8,$9,0*
20,1,$1+$1,$8,$9,$2,$3,0*%
G04 Aperture macros list end*
%ADD10RoundRect,0.250000X0.350000X0.625000X-0.350000X0.625000X-0.350000X-0.625000X0.350000X-0.625000X0*%
%ADD11O,1.200000X1.750000*%
%ADD12RoundRect,0.250000X-0.625000X0.350000X-0.625000X-0.350000X0.625000X-0.350000X0.625000X0.350000X0*%
%ADD13O,1.750000X1.200000*%
%ADD14RoundRect,0.200000X-0.275000X0.200000X-0.275000X-0.200000X0.275000X-0.200000X0.275000X0.200000X0*%
%ADD15RoundRect,0.135000X0.185000X-0.135000X0.185000X0.135000X-0.185000X0.135000X-0.185000X-0.135000X0*%
%ADD16RoundRect,0.243750X0.456250X-0.243750X0.456250X0.243750X-0.456250X0.243750X-0.456250X-0.243750X0*%
%ADD17R,0.700000X0.600000*%
%ADD18RoundRect,0.200100X0.949900X0.949900X-0.949900X0.949900X-0.949900X-0.949900X0.949900X-0.949900X0*%
%ADD19C,2.500000*%
%ADD20RoundRect,0.200100X-0.949900X-0.949900X0.949900X-0.949900X0.949900X0.949900X-0.949900X0.949900X0*%
%ADD21RoundRect,0.135000X-0.135000X-0.185000X0.135000X-0.185000X0.135000X0.185000X-0.135000X0.185000X0*%
%ADD22RoundRect,0.200000X-0.200000X-0.275000X0.200000X-0.275000X0.200000X0.275000X-0.200000X0.275000X0*%
%ADD23RoundRect,0.200000X0.200000X0.275000X-0.200000X0.275000X-0.200000X-0.275000X0.200000X-0.275000X0*%
%ADD24RoundRect,0.243750X0.243750X0.456250X-0.243750X0.456250X-0.243750X-0.456250X0.243750X-0.456250X0*%
%ADD25RoundRect,0.250000X0.725000X-0.600000X0.725000X0.600000X-0.725000X0.600000X-0.725000X-0.600000X0*%
%ADD26O,1.950000X1.700000*%
%ADD27RoundRect,0.135000X-0.185000X0.135000X-0.185000X-0.135000X0.185000X-0.135000X0.185000X0.135000X0*%
%ADD28RoundRect,0.140000X-0.140000X-0.170000X0.140000X-0.170000X0.140000X0.170000X-0.140000X0.170000X0*%
%ADD29R,0.600000X0.700000*%
%ADD30RoundRect,0.250000X-0.350000X-0.625000X0.350000X-0.625000X0.350000X0.625000X-0.350000X0.625000X0*%
%ADD31RoundRect,0.243750X-0.243750X-0.456250X0.243750X-0.456250X0.243750X0.456250X-0.243750X0.456250X0*%
%ADD32C,3.200000*%
%ADD33RoundRect,0.200100X0.949900X-0.949900X0.949900X0.949900X-0.949900X0.949900X-0.949900X-0.949900X0*%
%ADD34R,1.700000X1.700000*%
%ADD35O,1.700000X1.700000*%
%ADD36R,1.500000X2.000000*%
%ADD37R,3.800000X2.000000*%
%ADD38RoundRect,0.140000X0.170000X-0.140000X0.170000X0.140000X-0.170000X0.140000X-0.170000X-0.140000X0*%
%ADD39RoundRect,0.250000X0.625000X-0.350000X0.625000X0.350000X-0.625000X0.350000X-0.625000X-0.350000X0*%
%ADD40RoundRect,0.140000X-0.170000X0.140000X-0.170000X-0.140000X0.170000X-0.140000X0.170000X0.140000X0*%
%ADD41C,0.650000*%
%ADD42R,0.600000X1.450000*%
%ADD43R,0.300000X1.450000*%
%ADD44O,1.000000X2.100000*%
%ADD45O,1.000000X1.600000*%
%ADD46R,0.900000X1.500000*%
%ADD47R,1.500000X0.900000*%
%ADD48R,0.900000X0.900000*%
%ADD49R,2.300000X2.300000*%
%ADD50C,2.300000*%
G04 APERTURE END LIST*
D10*
G04 #@! TO.C,J30*
X94237148Y-128040000D03*
D11*
X92237148Y-128040000D03*
G04 #@! TD*
D12*
G04 #@! TO.C,J13*
X84547148Y-95410000D03*
D13*
X84547148Y-97410000D03*
X84547148Y-99410000D03*
G04 #@! TD*
D14*
G04 #@! TO.C,R7*
X74047148Y-103425000D03*
X74047148Y-105075000D03*
G04 #@! TD*
G04 #@! TO.C,R21*
X73947148Y-87285000D03*
X73947148Y-88935000D03*
G04 #@! TD*
D15*
G04 #@! TO.C,R16*
X94987148Y-122110000D03*
X94987148Y-121090000D03*
G04 #@! TD*
D16*
G04 #@! TO.C,D9*
X73897148Y-76587500D03*
X73897148Y-74712500D03*
G04 #@! TD*
D17*
G04 #@! TO.C,D1*
X131837148Y-84950000D03*
X131837148Y-83550000D03*
G04 #@! TD*
D15*
G04 #@! TO.C,R24*
X126887148Y-122110000D03*
X126887148Y-121090000D03*
G04 #@! TD*
D18*
G04 #@! TO.C,J15*
X85077148Y-128610000D03*
D19*
X87617148Y-131150000D03*
X87617148Y-126070000D03*
X82537148Y-131150000D03*
X82537148Y-126070000D03*
G04 #@! TD*
D20*
G04 #@! TO.C,J21*
X108037148Y-58890000D03*
D19*
X105497148Y-56350000D03*
X105497148Y-61430000D03*
X110577148Y-56350000D03*
X110577148Y-61430000D03*
G04 #@! TD*
D21*
G04 #@! TO.C,R14*
X83277148Y-59860000D03*
X84297148Y-59860000D03*
G04 #@! TD*
D22*
G04 #@! TO.C,R5*
X74712148Y-131350000D03*
X76362148Y-131350000D03*
G04 #@! TD*
D23*
G04 #@! TO.C,R11*
X102902148Y-56160000D03*
X101252148Y-56160000D03*
G04 #@! TD*
D21*
G04 #@! TO.C,R20*
X83327148Y-75700000D03*
X84347148Y-75700000D03*
G04 #@! TD*
D10*
G04 #@! TO.C,J27*
X110237148Y-128040000D03*
D11*
X108237148Y-128040000D03*
G04 #@! TD*
D10*
G04 #@! TO.C,J8*
X94777148Y-66760000D03*
D11*
X92777148Y-66760000D03*
X90777148Y-66760000D03*
G04 #@! TD*
D16*
G04 #@! TO.C,D10*
X73747148Y-92347500D03*
X73747148Y-90472500D03*
G04 #@! TD*
D17*
G04 #@! TO.C,D15*
X102227148Y-64759999D03*
X102227148Y-66159999D03*
G04 #@! TD*
D24*
G04 #@! TO.C,D4*
X111874648Y-131540000D03*
X109999648Y-131540000D03*
G04 #@! TD*
D25*
G04 #@! TO.C,J3*
X133450000Y-64750000D03*
D26*
X133450000Y-62250000D03*
X133450000Y-59750000D03*
G04 #@! TD*
D24*
G04 #@! TO.C,D11*
X127774648Y-131540000D03*
X125899648Y-131540000D03*
G04 #@! TD*
D17*
G04 #@! TO.C,D21*
X123387148Y-122740000D03*
X123387148Y-121340000D03*
G04 #@! TD*
D27*
G04 #@! TO.C,R18*
X114227148Y-65379999D03*
X114227148Y-66399999D03*
G04 #@! TD*
D28*
G04 #@! TO.C,C9*
X83347148Y-58560000D03*
X84307148Y-58560000D03*
G04 #@! TD*
D21*
G04 #@! TO.C,R8*
X83277148Y-107600000D03*
X84297148Y-107600000D03*
G04 #@! TD*
D14*
G04 #@! TO.C,R3*
X127741148Y-66009000D03*
X127741148Y-67659000D03*
G04 #@! TD*
D29*
G04 #@! TO.C,D20*
X82547147Y-87960000D03*
X83947147Y-87960000D03*
G04 #@! TD*
D23*
G04 #@! TO.C,R17*
X118402148Y-56150000D03*
X116752148Y-56150000D03*
G04 #@! TD*
D30*
G04 #@! TO.C,J7*
X114937148Y-120740000D03*
D11*
X116937148Y-120740000D03*
X118937148Y-120740000D03*
G04 #@! TD*
D10*
G04 #@! TO.C,J25*
X78137148Y-128050000D03*
D11*
X76137148Y-128050000D03*
G04 #@! TD*
D29*
G04 #@! TO.C,D19*
X82697147Y-72200000D03*
X84097147Y-72200000D03*
G04 #@! TD*
G04 #@! TO.C,D13*
X82647147Y-104100000D03*
X84047147Y-104100000D03*
G04 #@! TD*
D30*
G04 #@! TO.C,J28*
X99237148Y-59550000D03*
D11*
X101237148Y-59550000D03*
G04 #@! TD*
D18*
G04 #@! TO.C,J20*
X101177148Y-128600000D03*
D19*
X103717148Y-131140000D03*
X103717148Y-126060000D03*
X98637148Y-131140000D03*
X98637148Y-126060000D03*
G04 #@! TD*
D29*
G04 #@! TO.C,D16*
X82647147Y-56360000D03*
X84047147Y-56360000D03*
G04 #@! TD*
D15*
G04 #@! TO.C,R6*
X78887148Y-122120000D03*
X78887148Y-121100000D03*
G04 #@! TD*
D23*
G04 #@! TO.C,R4*
X133662148Y-82150000D03*
X132012148Y-82150000D03*
G04 #@! TD*
D28*
G04 #@! TO.C,C6*
X83347148Y-106300000D03*
X84307148Y-106300000D03*
G04 #@! TD*
D31*
G04 #@! TO.C,D8*
X113339648Y-55950000D03*
X115214648Y-55950000D03*
G04 #@! TD*
D18*
G04 #@! TO.C,J24*
X133077148Y-128600000D03*
D19*
X135617148Y-131140000D03*
X135617148Y-126060000D03*
X130537148Y-131140000D03*
X130537148Y-126060000D03*
G04 #@! TD*
D10*
G04 #@! TO.C,J34*
X126137148Y-128040000D03*
D11*
X124137148Y-128040000D03*
G04 #@! TD*
D12*
G04 #@! TO.C,J6*
X84647148Y-111550000D03*
D13*
X84647148Y-113550000D03*
X84647148Y-115550000D03*
G04 #@! TD*
D20*
G04 #@! TO.C,J18*
X92337148Y-58900000D03*
D19*
X89797148Y-56360000D03*
X89797148Y-61440000D03*
X94877148Y-56360000D03*
X94877148Y-61440000D03*
G04 #@! TD*
D32*
G04 #@! TO.C,H4*
X114199999Y-114000001D03*
G04 #@! TD*
D14*
G04 #@! TO.C,R2*
X129519148Y-66009000D03*
X129519148Y-67659000D03*
G04 #@! TD*
D28*
G04 #@! TO.C,C4*
X108257148Y-78050000D03*
X109217148Y-78050000D03*
G04 #@! TD*
D27*
G04 #@! TO.C,R12*
X98727148Y-65389999D03*
X98727148Y-66409999D03*
G04 #@! TD*
D33*
G04 #@! TO.C,J16*
X76787148Y-113790000D03*
D19*
X74247148Y-116330000D03*
X79327148Y-116330000D03*
X74247148Y-111250000D03*
X79327148Y-111250000D03*
G04 #@! TD*
D34*
G04 #@! TO.C,J2*
X100137148Y-105150000D03*
D35*
X100137148Y-102610000D03*
X100137148Y-100070000D03*
X100137148Y-97530000D03*
X100137148Y-94990000D03*
X100137148Y-92450000D03*
G04 #@! TD*
D36*
G04 #@! TO.C,U2*
X110637148Y-80200000D03*
X108337148Y-80200000D03*
D37*
X108337148Y-86500000D03*
D36*
X106037148Y-80200000D03*
G04 #@! TD*
D31*
G04 #@! TO.C,D5*
X97839648Y-55960000D03*
X99714648Y-55960000D03*
G04 #@! TD*
D32*
G04 #@! TO.C,H1*
X134200000Y-74000000D03*
G04 #@! TD*
D17*
G04 #@! TO.C,D14*
X107487148Y-122740000D03*
X107487148Y-121340000D03*
G04 #@! TD*
D38*
G04 #@! TO.C,C2*
X103937148Y-78855000D03*
X103937148Y-77895000D03*
G04 #@! TD*
D12*
G04 #@! TO.C,J12*
X84697148Y-79650000D03*
D13*
X84697148Y-81650000D03*
X84697148Y-83650000D03*
G04 #@! TD*
D17*
G04 #@! TO.C,D12*
X75387148Y-122750000D03*
X75387148Y-121350000D03*
G04 #@! TD*
D24*
G04 #@! TO.C,D7*
X95874648Y-131540000D03*
X93999648Y-131540000D03*
G04 #@! TD*
D38*
G04 #@! TO.C,C7*
X109687148Y-122040000D03*
X109687148Y-121080000D03*
G04 #@! TD*
D34*
G04 #@! TO.C,J1*
X111200000Y-96540000D03*
D35*
X111200000Y-94000000D03*
X111200000Y-91460000D03*
G04 #@! TD*
D22*
G04 #@! TO.C,R23*
X122712148Y-131340000D03*
X124362148Y-131340000D03*
G04 #@! TD*
D14*
G04 #@! TO.C,R19*
X74097148Y-71525000D03*
X74097148Y-73175000D03*
G04 #@! TD*
D17*
G04 #@! TO.C,D17*
X91487148Y-122740000D03*
X91487148Y-121340000D03*
G04 #@! TD*
D30*
G04 #@! TO.C,J10*
X98937148Y-120740000D03*
D11*
X100937148Y-120740000D03*
X102937148Y-120740000D03*
G04 #@! TD*
D39*
G04 #@! TO.C,J26*
X77347147Y-106850000D03*
D13*
X77347147Y-104850000D03*
G04 #@! TD*
D10*
G04 #@! TO.C,J11*
X110277148Y-66750000D03*
D11*
X108277148Y-66750000D03*
X106277148Y-66750000D03*
G04 #@! TD*
D12*
G04 #@! TO.C,J9*
X84647148Y-63810000D03*
D13*
X84647148Y-65810000D03*
X84647148Y-67810000D03*
G04 #@! TD*
D30*
G04 #@! TO.C,J31*
X114977148Y-59449999D03*
D11*
X116977148Y-59449999D03*
G04 #@! TD*
D39*
G04 #@! TO.C,J32*
X77397147Y-74950000D03*
D13*
X77397147Y-72950000D03*
G04 #@! TD*
D21*
G04 #@! TO.C,R22*
X83177148Y-91460000D03*
X84197148Y-91460000D03*
G04 #@! TD*
D14*
G04 #@! TO.C,R13*
X74047148Y-55685000D03*
X74047148Y-57335000D03*
G04 #@! TD*
D22*
G04 #@! TO.C,R9*
X106812148Y-131340000D03*
X108462148Y-131340000D03*
G04 #@! TD*
D39*
G04 #@! TO.C,J33*
X77247147Y-90710000D03*
D13*
X77247147Y-88710000D03*
G04 #@! TD*
D38*
G04 #@! TO.C,C5*
X77587148Y-122050000D03*
X77587148Y-121090000D03*
G04 #@! TD*
D40*
G04 #@! TO.C,C8*
X100027148Y-65459999D03*
X100027148Y-66419999D03*
G04 #@! TD*
G04 #@! TO.C,C11*
X115527148Y-65449999D03*
X115527148Y-66409999D03*
G04 #@! TD*
D24*
G04 #@! TO.C,D2*
X79774648Y-131550000D03*
X77899648Y-131550000D03*
G04 #@! TD*
D30*
G04 #@! TO.C,J14*
X130837148Y-120740000D03*
D11*
X132837148Y-120740000D03*
X134837148Y-120740000D03*
G04 #@! TD*
D33*
G04 #@! TO.C,J22*
X76837148Y-81890000D03*
D19*
X74297148Y-84430000D03*
X79377148Y-84430000D03*
X74297148Y-79350000D03*
X79377148Y-79350000D03*
G04 #@! TD*
D38*
G04 #@! TO.C,C10*
X93687148Y-122040000D03*
X93687148Y-121080000D03*
G04 #@! TD*
D33*
G04 #@! TO.C,J23*
X76687148Y-97650000D03*
D19*
X74147148Y-100190000D03*
X79227148Y-100190000D03*
X74147148Y-95110000D03*
X79227148Y-95110000D03*
G04 #@! TD*
D22*
G04 #@! TO.C,R15*
X90812148Y-131340000D03*
X92462148Y-131340000D03*
G04 #@! TD*
D21*
G04 #@! TO.C,R1*
X133037148Y-83450000D03*
X134057148Y-83450000D03*
G04 #@! TD*
D16*
G04 #@! TO.C,D6*
X73847148Y-60747500D03*
X73847148Y-58872500D03*
G04 #@! TD*
D32*
G04 #@! TO.C,H3*
X134200000Y-114000000D03*
G04 #@! TD*
D38*
G04 #@! TO.C,C14*
X125587148Y-122040000D03*
X125587148Y-121080000D03*
G04 #@! TD*
D39*
G04 #@! TO.C,J29*
X77347147Y-59110000D03*
D13*
X77347147Y-57110000D03*
G04 #@! TD*
D41*
G04 #@! TO.C,J4*
X128027148Y-61150000D03*
X122247148Y-61150000D03*
D42*
X128387148Y-62595000D03*
X127587148Y-62595000D03*
D43*
X126387148Y-62595000D03*
X125387148Y-62595000D03*
X124887148Y-62595000D03*
X123887148Y-62595000D03*
D42*
X122687148Y-62595000D03*
X121887148Y-62595000D03*
X121887148Y-62595000D03*
X122687148Y-62595000D03*
D43*
X123387148Y-62595000D03*
X124387148Y-62595000D03*
X125887148Y-62595000D03*
X126887148Y-62595000D03*
D42*
X127587148Y-62595000D03*
X128387148Y-62595000D03*
D44*
X129457148Y-61680000D03*
D45*
X129457148Y-57500000D03*
D44*
X120817148Y-61680000D03*
D45*
X120817148Y-57500000D03*
G04 #@! TD*
D16*
G04 #@! TO.C,D3*
X73847148Y-108487500D03*
X73847148Y-106612500D03*
G04 #@! TD*
D17*
G04 #@! TO.C,D18*
X117727148Y-64749999D03*
X117727148Y-66149999D03*
G04 #@! TD*
D30*
G04 #@! TO.C,J5*
X82837148Y-120750000D03*
D11*
X84837148Y-120750000D03*
X86837148Y-120750000D03*
G04 #@! TD*
D15*
G04 #@! TO.C,R10*
X110987148Y-122110000D03*
X110987148Y-121090000D03*
G04 #@! TD*
D33*
G04 #@! TO.C,J19*
X76787148Y-66050000D03*
D19*
X74247148Y-68590000D03*
X79327148Y-68590000D03*
X74247148Y-63510000D03*
X79327148Y-63510000D03*
G04 #@! TD*
D46*
G04 #@! TO.C,U1*
X136157148Y-88600000D03*
X134887148Y-88600000D03*
X133617148Y-88600000D03*
X132347148Y-88600000D03*
X131077148Y-88600000D03*
X129807148Y-88600000D03*
X128537148Y-88600000D03*
X127267148Y-88600000D03*
X125997148Y-88600000D03*
X124727148Y-88600000D03*
X123457148Y-88600000D03*
X122187148Y-88600000D03*
X120917148Y-88600000D03*
X119647148Y-88600000D03*
D47*
X118397148Y-90365000D03*
X118397148Y-91635000D03*
X118397148Y-92905000D03*
X118397148Y-94175000D03*
X118397148Y-95445000D03*
X118397148Y-96715000D03*
X118397148Y-97985000D03*
X118397148Y-99255000D03*
X118397148Y-100525000D03*
X118397148Y-101795000D03*
X118397148Y-103065000D03*
X118397148Y-104335000D03*
D46*
X119647148Y-106100000D03*
X120917148Y-106100000D03*
X122187148Y-106100000D03*
X123457148Y-106100000D03*
X124727148Y-106100000D03*
X125997148Y-106100000D03*
X127267148Y-106100000D03*
X128537148Y-106100000D03*
X129807148Y-106100000D03*
X131077148Y-106100000D03*
X132347148Y-106100000D03*
X133617148Y-106100000D03*
X134887148Y-106100000D03*
X136157148Y-106100000D03*
D48*
X129837148Y-94450000D03*
X128437148Y-94450000D03*
X127037148Y-94450000D03*
X127037148Y-94450000D03*
X129837148Y-95850000D03*
X129837148Y-95850000D03*
X128437148Y-95850000D03*
X127037148Y-95850000D03*
X129837148Y-97250000D03*
X128437148Y-97250000D03*
X127037148Y-97250000D03*
G04 #@! TD*
D28*
G04 #@! TO.C,C12*
X83397148Y-74400000D03*
X84357148Y-74400000D03*
G04 #@! TD*
G04 #@! TO.C,C13*
X83247148Y-90160000D03*
X84207148Y-90160000D03*
G04 #@! TD*
D18*
G04 #@! TO.C,J17*
X117177148Y-128600000D03*
D19*
X119717148Y-131140000D03*
X119717148Y-126060000D03*
X114637148Y-131140000D03*
X114637148Y-126060000D03*
G04 #@! TD*
D49*
G04 #@! TO.C,SW1*
X121237148Y-79750000D03*
D50*
X121237148Y-75050000D03*
X121237148Y-70350000D03*
G04 #@! TD*
D32*
G04 #@! TO.C,H2*
X114200000Y-74000000D03*
G04 #@! TD*
M02*
