G04 #@! TF.GenerationSoftware,KiCad,Pcbnew,7.0.5-7.0.5~ubuntu22.04.1*
G04 #@! TF.CreationDate,2023-06-19T14:44:42+01:00*
G04 #@! TF.ProjectId,logic_board,6c6f6769-635f-4626-9f61-72642e6b6963,rev?*
G04 #@! TF.SameCoordinates,Original*
G04 #@! TF.FileFunction,Legend,Bot*
G04 #@! TF.FilePolarity,Positive*
%FSLAX46Y46*%
G04 Gerber Fmt 4.6, Leading zero omitted, Abs format (unit mm)*
G04 Created by KiCad (PCBNEW 7.0.5-7.0.5~ubuntu22.04.1) date 2023-06-19 14:44:42*
%MOMM*%
%LPD*%
G01*
G04 APERTURE LIST*
%ADD10C,0.120000*%
G04 APERTURE END LIST*
D10*
G04 #@! TO.C,JP14*
X102981909Y-67085068D02*
X102981909Y-67442211D01*
X102981909Y-67442211D02*
X103005718Y-67513639D01*
X103005718Y-67513639D02*
X103053337Y-67561259D01*
X103053337Y-67561259D02*
X103124766Y-67585068D01*
X103124766Y-67585068D02*
X103172385Y-67585068D01*
X102743814Y-67585068D02*
X102743814Y-67085068D01*
X102743814Y-67085068D02*
X102553338Y-67085068D01*
X102553338Y-67085068D02*
X102505719Y-67108878D01*
X102505719Y-67108878D02*
X102481909Y-67132687D01*
X102481909Y-67132687D02*
X102458100Y-67180306D01*
X102458100Y-67180306D02*
X102458100Y-67251735D01*
X102458100Y-67251735D02*
X102481909Y-67299354D01*
X102481909Y-67299354D02*
X102505719Y-67323163D01*
X102505719Y-67323163D02*
X102553338Y-67346973D01*
X102553338Y-67346973D02*
X102743814Y-67346973D01*
X101981909Y-67585068D02*
X102267623Y-67585068D01*
X102124766Y-67585068D02*
X102124766Y-67085068D01*
X102124766Y-67085068D02*
X102172385Y-67156497D01*
X102172385Y-67156497D02*
X102220004Y-67204116D01*
X102220004Y-67204116D02*
X102267623Y-67227925D01*
X101553338Y-67251735D02*
X101553338Y-67585068D01*
X101672386Y-67061259D02*
X101791433Y-67418401D01*
X101791433Y-67418401D02*
X101481910Y-67418401D01*
G04 #@! TO.C,JP15*
X84972216Y-55605238D02*
X85329359Y-55605238D01*
X85329359Y-55605238D02*
X85400787Y-55581429D01*
X85400787Y-55581429D02*
X85448407Y-55533810D01*
X85448407Y-55533810D02*
X85472216Y-55462381D01*
X85472216Y-55462381D02*
X85472216Y-55414762D01*
X85472216Y-55843333D02*
X84972216Y-55843333D01*
X84972216Y-55843333D02*
X84972216Y-56033809D01*
X84972216Y-56033809D02*
X84996026Y-56081428D01*
X84996026Y-56081428D02*
X85019835Y-56105238D01*
X85019835Y-56105238D02*
X85067454Y-56129047D01*
X85067454Y-56129047D02*
X85138883Y-56129047D01*
X85138883Y-56129047D02*
X85186502Y-56105238D01*
X85186502Y-56105238D02*
X85210311Y-56081428D01*
X85210311Y-56081428D02*
X85234121Y-56033809D01*
X85234121Y-56033809D02*
X85234121Y-55843333D01*
X85472216Y-56605238D02*
X85472216Y-56319524D01*
X85472216Y-56462381D02*
X84972216Y-56462381D01*
X84972216Y-56462381D02*
X85043645Y-56414762D01*
X85043645Y-56414762D02*
X85091264Y-56367143D01*
X85091264Y-56367143D02*
X85115073Y-56319524D01*
X84972216Y-57057618D02*
X84972216Y-56819523D01*
X84972216Y-56819523D02*
X85210311Y-56795714D01*
X85210311Y-56795714D02*
X85186502Y-56819523D01*
X85186502Y-56819523D02*
X85162692Y-56867142D01*
X85162692Y-56867142D02*
X85162692Y-56986190D01*
X85162692Y-56986190D02*
X85186502Y-57033809D01*
X85186502Y-57033809D02*
X85210311Y-57057618D01*
X85210311Y-57057618D02*
X85257930Y-57081428D01*
X85257930Y-57081428D02*
X85376978Y-57081428D01*
X85376978Y-57081428D02*
X85424597Y-57057618D01*
X85424597Y-57057618D02*
X85448407Y-57033809D01*
X85448407Y-57033809D02*
X85472216Y-56986190D01*
X85472216Y-56986190D02*
X85472216Y-56867142D01*
X85472216Y-56867142D02*
X85448407Y-56819523D01*
X85448407Y-56819523D02*
X85424597Y-56795714D01*
G04 #@! TO.C,JP13*
X108041909Y-119865069D02*
X108041909Y-120222212D01*
X108041909Y-120222212D02*
X108065718Y-120293640D01*
X108065718Y-120293640D02*
X108113337Y-120341260D01*
X108113337Y-120341260D02*
X108184766Y-120365069D01*
X108184766Y-120365069D02*
X108232385Y-120365069D01*
X107803814Y-120365069D02*
X107803814Y-119865069D01*
X107803814Y-119865069D02*
X107613338Y-119865069D01*
X107613338Y-119865069D02*
X107565719Y-119888879D01*
X107565719Y-119888879D02*
X107541909Y-119912688D01*
X107541909Y-119912688D02*
X107518100Y-119960307D01*
X107518100Y-119960307D02*
X107518100Y-120031736D01*
X107518100Y-120031736D02*
X107541909Y-120079355D01*
X107541909Y-120079355D02*
X107565719Y-120103164D01*
X107565719Y-120103164D02*
X107613338Y-120126974D01*
X107613338Y-120126974D02*
X107803814Y-120126974D01*
X107041909Y-120365069D02*
X107327623Y-120365069D01*
X107184766Y-120365069D02*
X107184766Y-119865069D01*
X107184766Y-119865069D02*
X107232385Y-119936498D01*
X107232385Y-119936498D02*
X107280004Y-119984117D01*
X107280004Y-119984117D02*
X107327623Y-120007926D01*
X106875243Y-119865069D02*
X106565719Y-119865069D01*
X106565719Y-119865069D02*
X106732386Y-120055545D01*
X106732386Y-120055545D02*
X106660957Y-120055545D01*
X106660957Y-120055545D02*
X106613338Y-120079355D01*
X106613338Y-120079355D02*
X106589529Y-120103164D01*
X106589529Y-120103164D02*
X106565719Y-120150783D01*
X106565719Y-120150783D02*
X106565719Y-120269831D01*
X106565719Y-120269831D02*
X106589529Y-120317450D01*
X106589529Y-120317450D02*
X106613338Y-120341260D01*
X106613338Y-120341260D02*
X106660957Y-120365069D01*
X106660957Y-120365069D02*
X106803814Y-120365069D01*
X106803814Y-120365069D02*
X106851433Y-120341260D01*
X106851433Y-120341260D02*
X106875243Y-120317450D01*
G04 #@! TO.C,JP18*
X85022216Y-71445238D02*
X85379359Y-71445238D01*
X85379359Y-71445238D02*
X85450787Y-71421429D01*
X85450787Y-71421429D02*
X85498407Y-71373810D01*
X85498407Y-71373810D02*
X85522216Y-71302381D01*
X85522216Y-71302381D02*
X85522216Y-71254762D01*
X85522216Y-71683333D02*
X85022216Y-71683333D01*
X85022216Y-71683333D02*
X85022216Y-71873809D01*
X85022216Y-71873809D02*
X85046026Y-71921428D01*
X85046026Y-71921428D02*
X85069835Y-71945238D01*
X85069835Y-71945238D02*
X85117454Y-71969047D01*
X85117454Y-71969047D02*
X85188883Y-71969047D01*
X85188883Y-71969047D02*
X85236502Y-71945238D01*
X85236502Y-71945238D02*
X85260311Y-71921428D01*
X85260311Y-71921428D02*
X85284121Y-71873809D01*
X85284121Y-71873809D02*
X85284121Y-71683333D01*
X85522216Y-72445238D02*
X85522216Y-72159524D01*
X85522216Y-72302381D02*
X85022216Y-72302381D01*
X85022216Y-72302381D02*
X85093645Y-72254762D01*
X85093645Y-72254762D02*
X85141264Y-72207143D01*
X85141264Y-72207143D02*
X85165073Y-72159524D01*
X85236502Y-72730952D02*
X85212692Y-72683333D01*
X85212692Y-72683333D02*
X85188883Y-72659523D01*
X85188883Y-72659523D02*
X85141264Y-72635714D01*
X85141264Y-72635714D02*
X85117454Y-72635714D01*
X85117454Y-72635714D02*
X85069835Y-72659523D01*
X85069835Y-72659523D02*
X85046026Y-72683333D01*
X85046026Y-72683333D02*
X85022216Y-72730952D01*
X85022216Y-72730952D02*
X85022216Y-72826190D01*
X85022216Y-72826190D02*
X85046026Y-72873809D01*
X85046026Y-72873809D02*
X85069835Y-72897618D01*
X85069835Y-72897618D02*
X85117454Y-72921428D01*
X85117454Y-72921428D02*
X85141264Y-72921428D01*
X85141264Y-72921428D02*
X85188883Y-72897618D01*
X85188883Y-72897618D02*
X85212692Y-72873809D01*
X85212692Y-72873809D02*
X85236502Y-72826190D01*
X85236502Y-72826190D02*
X85236502Y-72730952D01*
X85236502Y-72730952D02*
X85260311Y-72683333D01*
X85260311Y-72683333D02*
X85284121Y-72659523D01*
X85284121Y-72659523D02*
X85331740Y-72635714D01*
X85331740Y-72635714D02*
X85426978Y-72635714D01*
X85426978Y-72635714D02*
X85474597Y-72659523D01*
X85474597Y-72659523D02*
X85498407Y-72683333D01*
X85498407Y-72683333D02*
X85522216Y-72730952D01*
X85522216Y-72730952D02*
X85522216Y-72826190D01*
X85522216Y-72826190D02*
X85498407Y-72873809D01*
X85498407Y-72873809D02*
X85474597Y-72897618D01*
X85474597Y-72897618D02*
X85426978Y-72921428D01*
X85426978Y-72921428D02*
X85331740Y-72921428D01*
X85331740Y-72921428D02*
X85284121Y-72897618D01*
X85284121Y-72897618D02*
X85260311Y-72873809D01*
X85260311Y-72873809D02*
X85236502Y-72826190D01*
G04 #@! TO.C,JP19*
X84872216Y-87205238D02*
X85229359Y-87205238D01*
X85229359Y-87205238D02*
X85300787Y-87181429D01*
X85300787Y-87181429D02*
X85348407Y-87133810D01*
X85348407Y-87133810D02*
X85372216Y-87062381D01*
X85372216Y-87062381D02*
X85372216Y-87014762D01*
X85372216Y-87443333D02*
X84872216Y-87443333D01*
X84872216Y-87443333D02*
X84872216Y-87633809D01*
X84872216Y-87633809D02*
X84896026Y-87681428D01*
X84896026Y-87681428D02*
X84919835Y-87705238D01*
X84919835Y-87705238D02*
X84967454Y-87729047D01*
X84967454Y-87729047D02*
X85038883Y-87729047D01*
X85038883Y-87729047D02*
X85086502Y-87705238D01*
X85086502Y-87705238D02*
X85110311Y-87681428D01*
X85110311Y-87681428D02*
X85134121Y-87633809D01*
X85134121Y-87633809D02*
X85134121Y-87443333D01*
X85372216Y-88205238D02*
X85372216Y-87919524D01*
X85372216Y-88062381D02*
X84872216Y-88062381D01*
X84872216Y-88062381D02*
X84943645Y-88014762D01*
X84943645Y-88014762D02*
X84991264Y-87967143D01*
X84991264Y-87967143D02*
X85015073Y-87919524D01*
X85372216Y-88443333D02*
X85372216Y-88538571D01*
X85372216Y-88538571D02*
X85348407Y-88586190D01*
X85348407Y-88586190D02*
X85324597Y-88609999D01*
X85324597Y-88609999D02*
X85253168Y-88657618D01*
X85253168Y-88657618D02*
X85157930Y-88681428D01*
X85157930Y-88681428D02*
X84967454Y-88681428D01*
X84967454Y-88681428D02*
X84919835Y-88657618D01*
X84919835Y-88657618D02*
X84896026Y-88633809D01*
X84896026Y-88633809D02*
X84872216Y-88586190D01*
X84872216Y-88586190D02*
X84872216Y-88490952D01*
X84872216Y-88490952D02*
X84896026Y-88443333D01*
X84896026Y-88443333D02*
X84919835Y-88419523D01*
X84919835Y-88419523D02*
X84967454Y-88395714D01*
X84967454Y-88395714D02*
X85086502Y-88395714D01*
X85086502Y-88395714D02*
X85134121Y-88419523D01*
X85134121Y-88419523D02*
X85157930Y-88443333D01*
X85157930Y-88443333D02*
X85181740Y-88490952D01*
X85181740Y-88490952D02*
X85181740Y-88586190D01*
X85181740Y-88586190D02*
X85157930Y-88633809D01*
X85157930Y-88633809D02*
X85134121Y-88657618D01*
X85134121Y-88657618D02*
X85086502Y-88681428D01*
G04 #@! TO.C,JP2*
X85072217Y-106483333D02*
X85429360Y-106483333D01*
X85429360Y-106483333D02*
X85500788Y-106459524D01*
X85500788Y-106459524D02*
X85548408Y-106411905D01*
X85548408Y-106411905D02*
X85572217Y-106340476D01*
X85572217Y-106340476D02*
X85572217Y-106292857D01*
X85572217Y-106721428D02*
X85072217Y-106721428D01*
X85072217Y-106721428D02*
X85072217Y-106911904D01*
X85072217Y-106911904D02*
X85096027Y-106959523D01*
X85096027Y-106959523D02*
X85119836Y-106983333D01*
X85119836Y-106983333D02*
X85167455Y-107007142D01*
X85167455Y-107007142D02*
X85238884Y-107007142D01*
X85238884Y-107007142D02*
X85286503Y-106983333D01*
X85286503Y-106983333D02*
X85310312Y-106959523D01*
X85310312Y-106959523D02*
X85334122Y-106911904D01*
X85334122Y-106911904D02*
X85334122Y-106721428D01*
X85119836Y-107197619D02*
X85096027Y-107221428D01*
X85096027Y-107221428D02*
X85072217Y-107269047D01*
X85072217Y-107269047D02*
X85072217Y-107388095D01*
X85072217Y-107388095D02*
X85096027Y-107435714D01*
X85096027Y-107435714D02*
X85119836Y-107459523D01*
X85119836Y-107459523D02*
X85167455Y-107483333D01*
X85167455Y-107483333D02*
X85215074Y-107483333D01*
X85215074Y-107483333D02*
X85286503Y-107459523D01*
X85286503Y-107459523D02*
X85572217Y-107173809D01*
X85572217Y-107173809D02*
X85572217Y-107483333D01*
G04 #@! TO.C,JP6*
X94703814Y-119765069D02*
X94703814Y-120122212D01*
X94703814Y-120122212D02*
X94727623Y-120193640D01*
X94727623Y-120193640D02*
X94775242Y-120241260D01*
X94775242Y-120241260D02*
X94846671Y-120265069D01*
X94846671Y-120265069D02*
X94894290Y-120265069D01*
X94465719Y-120265069D02*
X94465719Y-119765069D01*
X94465719Y-119765069D02*
X94275243Y-119765069D01*
X94275243Y-119765069D02*
X94227624Y-119788879D01*
X94227624Y-119788879D02*
X94203814Y-119812688D01*
X94203814Y-119812688D02*
X94180005Y-119860307D01*
X94180005Y-119860307D02*
X94180005Y-119931736D01*
X94180005Y-119931736D02*
X94203814Y-119979355D01*
X94203814Y-119979355D02*
X94227624Y-120003164D01*
X94227624Y-120003164D02*
X94275243Y-120026974D01*
X94275243Y-120026974D02*
X94465719Y-120026974D01*
X93751433Y-119765069D02*
X93846671Y-119765069D01*
X93846671Y-119765069D02*
X93894290Y-119788879D01*
X93894290Y-119788879D02*
X93918100Y-119812688D01*
X93918100Y-119812688D02*
X93965719Y-119884117D01*
X93965719Y-119884117D02*
X93989528Y-119979355D01*
X93989528Y-119979355D02*
X93989528Y-120169831D01*
X93989528Y-120169831D02*
X93965719Y-120217450D01*
X93965719Y-120217450D02*
X93941909Y-120241260D01*
X93941909Y-120241260D02*
X93894290Y-120265069D01*
X93894290Y-120265069D02*
X93799052Y-120265069D01*
X93799052Y-120265069D02*
X93751433Y-120241260D01*
X93751433Y-120241260D02*
X93727624Y-120217450D01*
X93727624Y-120217450D02*
X93703814Y-120169831D01*
X93703814Y-120169831D02*
X93703814Y-120050783D01*
X93703814Y-120050783D02*
X93727624Y-120003164D01*
X93727624Y-120003164D02*
X93751433Y-119979355D01*
X93751433Y-119979355D02*
X93799052Y-119955545D01*
X93799052Y-119955545D02*
X93894290Y-119955545D01*
X93894290Y-119955545D02*
X93941909Y-119979355D01*
X93941909Y-119979355D02*
X93965719Y-120003164D01*
X93965719Y-120003164D02*
X93989528Y-120050783D01*
G04 #@! TO.C,JP10*
X126841909Y-119765069D02*
X126841909Y-120122212D01*
X126841909Y-120122212D02*
X126865718Y-120193640D01*
X126865718Y-120193640D02*
X126913337Y-120241260D01*
X126913337Y-120241260D02*
X126984766Y-120265069D01*
X126984766Y-120265069D02*
X127032385Y-120265069D01*
X126603814Y-120265069D02*
X126603814Y-119765069D01*
X126603814Y-119765069D02*
X126413338Y-119765069D01*
X126413338Y-119765069D02*
X126365719Y-119788879D01*
X126365719Y-119788879D02*
X126341909Y-119812688D01*
X126341909Y-119812688D02*
X126318100Y-119860307D01*
X126318100Y-119860307D02*
X126318100Y-119931736D01*
X126318100Y-119931736D02*
X126341909Y-119979355D01*
X126341909Y-119979355D02*
X126365719Y-120003164D01*
X126365719Y-120003164D02*
X126413338Y-120026974D01*
X126413338Y-120026974D02*
X126603814Y-120026974D01*
X125841909Y-120265069D02*
X126127623Y-120265069D01*
X125984766Y-120265069D02*
X125984766Y-119765069D01*
X125984766Y-119765069D02*
X126032385Y-119836498D01*
X126032385Y-119836498D02*
X126080004Y-119884117D01*
X126080004Y-119884117D02*
X126127623Y-119907926D01*
X125532386Y-119765069D02*
X125484767Y-119765069D01*
X125484767Y-119765069D02*
X125437148Y-119788879D01*
X125437148Y-119788879D02*
X125413338Y-119812688D01*
X125413338Y-119812688D02*
X125389529Y-119860307D01*
X125389529Y-119860307D02*
X125365719Y-119955545D01*
X125365719Y-119955545D02*
X125365719Y-120074593D01*
X125365719Y-120074593D02*
X125389529Y-120169831D01*
X125389529Y-120169831D02*
X125413338Y-120217450D01*
X125413338Y-120217450D02*
X125437148Y-120241260D01*
X125437148Y-120241260D02*
X125484767Y-120265069D01*
X125484767Y-120265069D02*
X125532386Y-120265069D01*
X125532386Y-120265069D02*
X125580005Y-120241260D01*
X125580005Y-120241260D02*
X125603814Y-120217450D01*
X125603814Y-120217450D02*
X125627624Y-120169831D01*
X125627624Y-120169831D02*
X125651433Y-120074593D01*
X125651433Y-120074593D02*
X125651433Y-119955545D01*
X125651433Y-119955545D02*
X125627624Y-119860307D01*
X125627624Y-119860307D02*
X125603814Y-119812688D01*
X125603814Y-119812688D02*
X125580005Y-119788879D01*
X125580005Y-119788879D02*
X125532386Y-119765069D01*
G04 #@! TO.C,JP3*
X110703814Y-119765069D02*
X110703814Y-120122212D01*
X110703814Y-120122212D02*
X110727623Y-120193640D01*
X110727623Y-120193640D02*
X110775242Y-120241260D01*
X110775242Y-120241260D02*
X110846671Y-120265069D01*
X110846671Y-120265069D02*
X110894290Y-120265069D01*
X110465719Y-120265069D02*
X110465719Y-119765069D01*
X110465719Y-119765069D02*
X110275243Y-119765069D01*
X110275243Y-119765069D02*
X110227624Y-119788879D01*
X110227624Y-119788879D02*
X110203814Y-119812688D01*
X110203814Y-119812688D02*
X110180005Y-119860307D01*
X110180005Y-119860307D02*
X110180005Y-119931736D01*
X110180005Y-119931736D02*
X110203814Y-119979355D01*
X110203814Y-119979355D02*
X110227624Y-120003164D01*
X110227624Y-120003164D02*
X110275243Y-120026974D01*
X110275243Y-120026974D02*
X110465719Y-120026974D01*
X110013338Y-119765069D02*
X109703814Y-119765069D01*
X109703814Y-119765069D02*
X109870481Y-119955545D01*
X109870481Y-119955545D02*
X109799052Y-119955545D01*
X109799052Y-119955545D02*
X109751433Y-119979355D01*
X109751433Y-119979355D02*
X109727624Y-120003164D01*
X109727624Y-120003164D02*
X109703814Y-120050783D01*
X109703814Y-120050783D02*
X109703814Y-120169831D01*
X109703814Y-120169831D02*
X109727624Y-120217450D01*
X109727624Y-120217450D02*
X109751433Y-120241260D01*
X109751433Y-120241260D02*
X109799052Y-120265069D01*
X109799052Y-120265069D02*
X109941909Y-120265069D01*
X109941909Y-120265069D02*
X109989528Y-120241260D01*
X109989528Y-120241260D02*
X110013338Y-120217450D01*
G04 #@! TO.C,JP20*
X123941909Y-119865069D02*
X123941909Y-120222212D01*
X123941909Y-120222212D02*
X123965718Y-120293640D01*
X123965718Y-120293640D02*
X124013337Y-120341260D01*
X124013337Y-120341260D02*
X124084766Y-120365069D01*
X124084766Y-120365069D02*
X124132385Y-120365069D01*
X123703814Y-120365069D02*
X123703814Y-119865069D01*
X123703814Y-119865069D02*
X123513338Y-119865069D01*
X123513338Y-119865069D02*
X123465719Y-119888879D01*
X123465719Y-119888879D02*
X123441909Y-119912688D01*
X123441909Y-119912688D02*
X123418100Y-119960307D01*
X123418100Y-119960307D02*
X123418100Y-120031736D01*
X123418100Y-120031736D02*
X123441909Y-120079355D01*
X123441909Y-120079355D02*
X123465719Y-120103164D01*
X123465719Y-120103164D02*
X123513338Y-120126974D01*
X123513338Y-120126974D02*
X123703814Y-120126974D01*
X123227623Y-119912688D02*
X123203814Y-119888879D01*
X123203814Y-119888879D02*
X123156195Y-119865069D01*
X123156195Y-119865069D02*
X123037147Y-119865069D01*
X123037147Y-119865069D02*
X122989528Y-119888879D01*
X122989528Y-119888879D02*
X122965719Y-119912688D01*
X122965719Y-119912688D02*
X122941909Y-119960307D01*
X122941909Y-119960307D02*
X122941909Y-120007926D01*
X122941909Y-120007926D02*
X122965719Y-120079355D01*
X122965719Y-120079355D02*
X123251433Y-120365069D01*
X123251433Y-120365069D02*
X122941909Y-120365069D01*
X122632386Y-119865069D02*
X122584767Y-119865069D01*
X122584767Y-119865069D02*
X122537148Y-119888879D01*
X122537148Y-119888879D02*
X122513338Y-119912688D01*
X122513338Y-119912688D02*
X122489529Y-119960307D01*
X122489529Y-119960307D02*
X122465719Y-120055545D01*
X122465719Y-120055545D02*
X122465719Y-120174593D01*
X122465719Y-120174593D02*
X122489529Y-120269831D01*
X122489529Y-120269831D02*
X122513338Y-120317450D01*
X122513338Y-120317450D02*
X122537148Y-120341260D01*
X122537148Y-120341260D02*
X122584767Y-120365069D01*
X122584767Y-120365069D02*
X122632386Y-120365069D01*
X122632386Y-120365069D02*
X122680005Y-120341260D01*
X122680005Y-120341260D02*
X122703814Y-120317450D01*
X122703814Y-120317450D02*
X122727624Y-120269831D01*
X122727624Y-120269831D02*
X122751433Y-120174593D01*
X122751433Y-120174593D02*
X122751433Y-120055545D01*
X122751433Y-120055545D02*
X122727624Y-119960307D01*
X122727624Y-119960307D02*
X122703814Y-119912688D01*
X122703814Y-119912688D02*
X122680005Y-119888879D01*
X122680005Y-119888879D02*
X122632386Y-119865069D01*
G04 #@! TO.C,JP16*
X92041909Y-119865069D02*
X92041909Y-120222212D01*
X92041909Y-120222212D02*
X92065718Y-120293640D01*
X92065718Y-120293640D02*
X92113337Y-120341260D01*
X92113337Y-120341260D02*
X92184766Y-120365069D01*
X92184766Y-120365069D02*
X92232385Y-120365069D01*
X91803814Y-120365069D02*
X91803814Y-119865069D01*
X91803814Y-119865069D02*
X91613338Y-119865069D01*
X91613338Y-119865069D02*
X91565719Y-119888879D01*
X91565719Y-119888879D02*
X91541909Y-119912688D01*
X91541909Y-119912688D02*
X91518100Y-119960307D01*
X91518100Y-119960307D02*
X91518100Y-120031736D01*
X91518100Y-120031736D02*
X91541909Y-120079355D01*
X91541909Y-120079355D02*
X91565719Y-120103164D01*
X91565719Y-120103164D02*
X91613338Y-120126974D01*
X91613338Y-120126974D02*
X91803814Y-120126974D01*
X91041909Y-120365069D02*
X91327623Y-120365069D01*
X91184766Y-120365069D02*
X91184766Y-119865069D01*
X91184766Y-119865069D02*
X91232385Y-119936498D01*
X91232385Y-119936498D02*
X91280004Y-119984117D01*
X91280004Y-119984117D02*
X91327623Y-120007926D01*
X90613338Y-119865069D02*
X90708576Y-119865069D01*
X90708576Y-119865069D02*
X90756195Y-119888879D01*
X90756195Y-119888879D02*
X90780005Y-119912688D01*
X90780005Y-119912688D02*
X90827624Y-119984117D01*
X90827624Y-119984117D02*
X90851433Y-120079355D01*
X90851433Y-120079355D02*
X90851433Y-120269831D01*
X90851433Y-120269831D02*
X90827624Y-120317450D01*
X90827624Y-120317450D02*
X90803814Y-120341260D01*
X90803814Y-120341260D02*
X90756195Y-120365069D01*
X90756195Y-120365069D02*
X90660957Y-120365069D01*
X90660957Y-120365069D02*
X90613338Y-120341260D01*
X90613338Y-120341260D02*
X90589529Y-120317450D01*
X90589529Y-120317450D02*
X90565719Y-120269831D01*
X90565719Y-120269831D02*
X90565719Y-120150783D01*
X90565719Y-120150783D02*
X90589529Y-120103164D01*
X90589529Y-120103164D02*
X90613338Y-120079355D01*
X90613338Y-120079355D02*
X90660957Y-120055545D01*
X90660957Y-120055545D02*
X90756195Y-120055545D01*
X90756195Y-120055545D02*
X90803814Y-120079355D01*
X90803814Y-120079355D02*
X90827624Y-120103164D01*
X90827624Y-120103164D02*
X90851433Y-120150783D01*
G04 #@! TO.C,JP17*
X118481909Y-67075068D02*
X118481909Y-67432211D01*
X118481909Y-67432211D02*
X118505718Y-67503639D01*
X118505718Y-67503639D02*
X118553337Y-67551259D01*
X118553337Y-67551259D02*
X118624766Y-67575068D01*
X118624766Y-67575068D02*
X118672385Y-67575068D01*
X118243814Y-67575068D02*
X118243814Y-67075068D01*
X118243814Y-67075068D02*
X118053338Y-67075068D01*
X118053338Y-67075068D02*
X118005719Y-67098878D01*
X118005719Y-67098878D02*
X117981909Y-67122687D01*
X117981909Y-67122687D02*
X117958100Y-67170306D01*
X117958100Y-67170306D02*
X117958100Y-67241735D01*
X117958100Y-67241735D02*
X117981909Y-67289354D01*
X117981909Y-67289354D02*
X118005719Y-67313163D01*
X118005719Y-67313163D02*
X118053338Y-67336973D01*
X118053338Y-67336973D02*
X118243814Y-67336973D01*
X117481909Y-67575068D02*
X117767623Y-67575068D01*
X117624766Y-67575068D02*
X117624766Y-67075068D01*
X117624766Y-67075068D02*
X117672385Y-67146497D01*
X117672385Y-67146497D02*
X117720004Y-67194116D01*
X117720004Y-67194116D02*
X117767623Y-67217925D01*
X117315243Y-67075068D02*
X116981910Y-67075068D01*
X116981910Y-67075068D02*
X117196195Y-67575068D01*
G04 #@! TO.C,JP7*
X115343814Y-67175068D02*
X115343814Y-67532211D01*
X115343814Y-67532211D02*
X115367623Y-67603639D01*
X115367623Y-67603639D02*
X115415242Y-67651259D01*
X115415242Y-67651259D02*
X115486671Y-67675068D01*
X115486671Y-67675068D02*
X115534290Y-67675068D01*
X115105719Y-67675068D02*
X115105719Y-67175068D01*
X115105719Y-67175068D02*
X114915243Y-67175068D01*
X114915243Y-67175068D02*
X114867624Y-67198878D01*
X114867624Y-67198878D02*
X114843814Y-67222687D01*
X114843814Y-67222687D02*
X114820005Y-67270306D01*
X114820005Y-67270306D02*
X114820005Y-67341735D01*
X114820005Y-67341735D02*
X114843814Y-67389354D01*
X114843814Y-67389354D02*
X114867624Y-67413163D01*
X114867624Y-67413163D02*
X114915243Y-67436973D01*
X114915243Y-67436973D02*
X115105719Y-67436973D01*
X114653338Y-67175068D02*
X114320005Y-67175068D01*
X114320005Y-67175068D02*
X114534290Y-67675068D01*
G04 #@! TO.C,JP12*
X84972216Y-103345238D02*
X85329359Y-103345238D01*
X85329359Y-103345238D02*
X85400787Y-103321429D01*
X85400787Y-103321429D02*
X85448407Y-103273810D01*
X85448407Y-103273810D02*
X85472216Y-103202381D01*
X85472216Y-103202381D02*
X85472216Y-103154762D01*
X85472216Y-103583333D02*
X84972216Y-103583333D01*
X84972216Y-103583333D02*
X84972216Y-103773809D01*
X84972216Y-103773809D02*
X84996026Y-103821428D01*
X84996026Y-103821428D02*
X85019835Y-103845238D01*
X85019835Y-103845238D02*
X85067454Y-103869047D01*
X85067454Y-103869047D02*
X85138883Y-103869047D01*
X85138883Y-103869047D02*
X85186502Y-103845238D01*
X85186502Y-103845238D02*
X85210311Y-103821428D01*
X85210311Y-103821428D02*
X85234121Y-103773809D01*
X85234121Y-103773809D02*
X85234121Y-103583333D01*
X85472216Y-104345238D02*
X85472216Y-104059524D01*
X85472216Y-104202381D02*
X84972216Y-104202381D01*
X84972216Y-104202381D02*
X85043645Y-104154762D01*
X85043645Y-104154762D02*
X85091264Y-104107143D01*
X85091264Y-104107143D02*
X85115073Y-104059524D01*
X85019835Y-104535714D02*
X84996026Y-104559523D01*
X84996026Y-104559523D02*
X84972216Y-104607142D01*
X84972216Y-104607142D02*
X84972216Y-104726190D01*
X84972216Y-104726190D02*
X84996026Y-104773809D01*
X84996026Y-104773809D02*
X85019835Y-104797618D01*
X85019835Y-104797618D02*
X85067454Y-104821428D01*
X85067454Y-104821428D02*
X85115073Y-104821428D01*
X85115073Y-104821428D02*
X85186502Y-104797618D01*
X85186502Y-104797618D02*
X85472216Y-104511904D01*
X85472216Y-104511904D02*
X85472216Y-104821428D01*
G04 #@! TO.C,JP5*
X85072217Y-58743333D02*
X85429360Y-58743333D01*
X85429360Y-58743333D02*
X85500788Y-58719524D01*
X85500788Y-58719524D02*
X85548408Y-58671905D01*
X85548408Y-58671905D02*
X85572217Y-58600476D01*
X85572217Y-58600476D02*
X85572217Y-58552857D01*
X85572217Y-58981428D02*
X85072217Y-58981428D01*
X85072217Y-58981428D02*
X85072217Y-59171904D01*
X85072217Y-59171904D02*
X85096027Y-59219523D01*
X85096027Y-59219523D02*
X85119836Y-59243333D01*
X85119836Y-59243333D02*
X85167455Y-59267142D01*
X85167455Y-59267142D02*
X85238884Y-59267142D01*
X85238884Y-59267142D02*
X85286503Y-59243333D01*
X85286503Y-59243333D02*
X85310312Y-59219523D01*
X85310312Y-59219523D02*
X85334122Y-59171904D01*
X85334122Y-59171904D02*
X85334122Y-58981428D01*
X85072217Y-59719523D02*
X85072217Y-59481428D01*
X85072217Y-59481428D02*
X85310312Y-59457619D01*
X85310312Y-59457619D02*
X85286503Y-59481428D01*
X85286503Y-59481428D02*
X85262693Y-59529047D01*
X85262693Y-59529047D02*
X85262693Y-59648095D01*
X85262693Y-59648095D02*
X85286503Y-59695714D01*
X85286503Y-59695714D02*
X85310312Y-59719523D01*
X85310312Y-59719523D02*
X85357931Y-59743333D01*
X85357931Y-59743333D02*
X85476979Y-59743333D01*
X85476979Y-59743333D02*
X85524598Y-59719523D01*
X85524598Y-59719523D02*
X85548408Y-59695714D01*
X85548408Y-59695714D02*
X85572217Y-59648095D01*
X85572217Y-59648095D02*
X85572217Y-59529047D01*
X85572217Y-59529047D02*
X85548408Y-59481428D01*
X85548408Y-59481428D02*
X85524598Y-59457619D01*
G04 #@! TO.C,JP11*
X75941909Y-119875069D02*
X75941909Y-120232212D01*
X75941909Y-120232212D02*
X75965718Y-120303640D01*
X75965718Y-120303640D02*
X76013337Y-120351260D01*
X76013337Y-120351260D02*
X76084766Y-120375069D01*
X76084766Y-120375069D02*
X76132385Y-120375069D01*
X75703814Y-120375069D02*
X75703814Y-119875069D01*
X75703814Y-119875069D02*
X75513338Y-119875069D01*
X75513338Y-119875069D02*
X75465719Y-119898879D01*
X75465719Y-119898879D02*
X75441909Y-119922688D01*
X75441909Y-119922688D02*
X75418100Y-119970307D01*
X75418100Y-119970307D02*
X75418100Y-120041736D01*
X75418100Y-120041736D02*
X75441909Y-120089355D01*
X75441909Y-120089355D02*
X75465719Y-120113164D01*
X75465719Y-120113164D02*
X75513338Y-120136974D01*
X75513338Y-120136974D02*
X75703814Y-120136974D01*
X74941909Y-120375069D02*
X75227623Y-120375069D01*
X75084766Y-120375069D02*
X75084766Y-119875069D01*
X75084766Y-119875069D02*
X75132385Y-119946498D01*
X75132385Y-119946498D02*
X75180004Y-119994117D01*
X75180004Y-119994117D02*
X75227623Y-120017926D01*
X74465719Y-120375069D02*
X74751433Y-120375069D01*
X74608576Y-120375069D02*
X74608576Y-119875069D01*
X74608576Y-119875069D02*
X74656195Y-119946498D01*
X74656195Y-119946498D02*
X74703814Y-119994117D01*
X74703814Y-119994117D02*
X74751433Y-120017926D01*
G04 #@! TO.C,JP9*
X84972217Y-90343333D02*
X85329360Y-90343333D01*
X85329360Y-90343333D02*
X85400788Y-90319524D01*
X85400788Y-90319524D02*
X85448408Y-90271905D01*
X85448408Y-90271905D02*
X85472217Y-90200476D01*
X85472217Y-90200476D02*
X85472217Y-90152857D01*
X85472217Y-90581428D02*
X84972217Y-90581428D01*
X84972217Y-90581428D02*
X84972217Y-90771904D01*
X84972217Y-90771904D02*
X84996027Y-90819523D01*
X84996027Y-90819523D02*
X85019836Y-90843333D01*
X85019836Y-90843333D02*
X85067455Y-90867142D01*
X85067455Y-90867142D02*
X85138884Y-90867142D01*
X85138884Y-90867142D02*
X85186503Y-90843333D01*
X85186503Y-90843333D02*
X85210312Y-90819523D01*
X85210312Y-90819523D02*
X85234122Y-90771904D01*
X85234122Y-90771904D02*
X85234122Y-90581428D01*
X85472217Y-91105238D02*
X85472217Y-91200476D01*
X85472217Y-91200476D02*
X85448408Y-91248095D01*
X85448408Y-91248095D02*
X85424598Y-91271904D01*
X85424598Y-91271904D02*
X85353169Y-91319523D01*
X85353169Y-91319523D02*
X85257931Y-91343333D01*
X85257931Y-91343333D02*
X85067455Y-91343333D01*
X85067455Y-91343333D02*
X85019836Y-91319523D01*
X85019836Y-91319523D02*
X84996027Y-91295714D01*
X84996027Y-91295714D02*
X84972217Y-91248095D01*
X84972217Y-91248095D02*
X84972217Y-91152857D01*
X84972217Y-91152857D02*
X84996027Y-91105238D01*
X84996027Y-91105238D02*
X85019836Y-91081428D01*
X85019836Y-91081428D02*
X85067455Y-91057619D01*
X85067455Y-91057619D02*
X85186503Y-91057619D01*
X85186503Y-91057619D02*
X85234122Y-91081428D01*
X85234122Y-91081428D02*
X85257931Y-91105238D01*
X85257931Y-91105238D02*
X85281741Y-91152857D01*
X85281741Y-91152857D02*
X85281741Y-91248095D01*
X85281741Y-91248095D02*
X85257931Y-91295714D01*
X85257931Y-91295714D02*
X85234122Y-91319523D01*
X85234122Y-91319523D02*
X85186503Y-91343333D01*
G04 #@! TO.C,JP4*
X99843814Y-67185068D02*
X99843814Y-67542211D01*
X99843814Y-67542211D02*
X99867623Y-67613639D01*
X99867623Y-67613639D02*
X99915242Y-67661259D01*
X99915242Y-67661259D02*
X99986671Y-67685068D01*
X99986671Y-67685068D02*
X100034290Y-67685068D01*
X99605719Y-67685068D02*
X99605719Y-67185068D01*
X99605719Y-67185068D02*
X99415243Y-67185068D01*
X99415243Y-67185068D02*
X99367624Y-67208878D01*
X99367624Y-67208878D02*
X99343814Y-67232687D01*
X99343814Y-67232687D02*
X99320005Y-67280306D01*
X99320005Y-67280306D02*
X99320005Y-67351735D01*
X99320005Y-67351735D02*
X99343814Y-67399354D01*
X99343814Y-67399354D02*
X99367624Y-67423163D01*
X99367624Y-67423163D02*
X99415243Y-67446973D01*
X99415243Y-67446973D02*
X99605719Y-67446973D01*
X98891433Y-67351735D02*
X98891433Y-67685068D01*
X99010481Y-67161259D02*
X99129528Y-67518401D01*
X99129528Y-67518401D02*
X98820005Y-67518401D01*
G04 #@! TO.C,JP8*
X85122217Y-74583333D02*
X85479360Y-74583333D01*
X85479360Y-74583333D02*
X85550788Y-74559524D01*
X85550788Y-74559524D02*
X85598408Y-74511905D01*
X85598408Y-74511905D02*
X85622217Y-74440476D01*
X85622217Y-74440476D02*
X85622217Y-74392857D01*
X85622217Y-74821428D02*
X85122217Y-74821428D01*
X85122217Y-74821428D02*
X85122217Y-75011904D01*
X85122217Y-75011904D02*
X85146027Y-75059523D01*
X85146027Y-75059523D02*
X85169836Y-75083333D01*
X85169836Y-75083333D02*
X85217455Y-75107142D01*
X85217455Y-75107142D02*
X85288884Y-75107142D01*
X85288884Y-75107142D02*
X85336503Y-75083333D01*
X85336503Y-75083333D02*
X85360312Y-75059523D01*
X85360312Y-75059523D02*
X85384122Y-75011904D01*
X85384122Y-75011904D02*
X85384122Y-74821428D01*
X85336503Y-75392857D02*
X85312693Y-75345238D01*
X85312693Y-75345238D02*
X85288884Y-75321428D01*
X85288884Y-75321428D02*
X85241265Y-75297619D01*
X85241265Y-75297619D02*
X85217455Y-75297619D01*
X85217455Y-75297619D02*
X85169836Y-75321428D01*
X85169836Y-75321428D02*
X85146027Y-75345238D01*
X85146027Y-75345238D02*
X85122217Y-75392857D01*
X85122217Y-75392857D02*
X85122217Y-75488095D01*
X85122217Y-75488095D02*
X85146027Y-75535714D01*
X85146027Y-75535714D02*
X85169836Y-75559523D01*
X85169836Y-75559523D02*
X85217455Y-75583333D01*
X85217455Y-75583333D02*
X85241265Y-75583333D01*
X85241265Y-75583333D02*
X85288884Y-75559523D01*
X85288884Y-75559523D02*
X85312693Y-75535714D01*
X85312693Y-75535714D02*
X85336503Y-75488095D01*
X85336503Y-75488095D02*
X85336503Y-75392857D01*
X85336503Y-75392857D02*
X85360312Y-75345238D01*
X85360312Y-75345238D02*
X85384122Y-75321428D01*
X85384122Y-75321428D02*
X85431741Y-75297619D01*
X85431741Y-75297619D02*
X85526979Y-75297619D01*
X85526979Y-75297619D02*
X85574598Y-75321428D01*
X85574598Y-75321428D02*
X85598408Y-75345238D01*
X85598408Y-75345238D02*
X85622217Y-75392857D01*
X85622217Y-75392857D02*
X85622217Y-75488095D01*
X85622217Y-75488095D02*
X85598408Y-75535714D01*
X85598408Y-75535714D02*
X85574598Y-75559523D01*
X85574598Y-75559523D02*
X85526979Y-75583333D01*
X85526979Y-75583333D02*
X85431741Y-75583333D01*
X85431741Y-75583333D02*
X85384122Y-75559523D01*
X85384122Y-75559523D02*
X85360312Y-75535714D01*
X85360312Y-75535714D02*
X85336503Y-75488095D01*
G04 #@! TO.C,JP1*
X78603814Y-119775069D02*
X78603814Y-120132212D01*
X78603814Y-120132212D02*
X78627623Y-120203640D01*
X78627623Y-120203640D02*
X78675242Y-120251260D01*
X78675242Y-120251260D02*
X78746671Y-120275069D01*
X78746671Y-120275069D02*
X78794290Y-120275069D01*
X78365719Y-120275069D02*
X78365719Y-119775069D01*
X78365719Y-119775069D02*
X78175243Y-119775069D01*
X78175243Y-119775069D02*
X78127624Y-119798879D01*
X78127624Y-119798879D02*
X78103814Y-119822688D01*
X78103814Y-119822688D02*
X78080005Y-119870307D01*
X78080005Y-119870307D02*
X78080005Y-119941736D01*
X78080005Y-119941736D02*
X78103814Y-119989355D01*
X78103814Y-119989355D02*
X78127624Y-120013164D01*
X78127624Y-120013164D02*
X78175243Y-120036974D01*
X78175243Y-120036974D02*
X78365719Y-120036974D01*
X77603814Y-120275069D02*
X77889528Y-120275069D01*
X77746671Y-120275069D02*
X77746671Y-119775069D01*
X77746671Y-119775069D02*
X77794290Y-119846498D01*
X77794290Y-119846498D02*
X77841909Y-119894117D01*
X77841909Y-119894117D02*
X77889528Y-119917926D01*
G04 #@! TO.C,JP14*
X102527148Y-64159999D02*
X101927148Y-64159999D01*
X101227148Y-64859999D02*
X101227148Y-66259999D01*
X103227148Y-66259999D02*
X103227148Y-64859999D01*
X101927148Y-66959999D02*
X102527148Y-66959999D01*
X103227148Y-64859999D02*
G75*
G03*
X102527148Y-64159999I-699999J1D01*
G01*
X101927148Y-64159999D02*
G75*
G03*
X101227148Y-64859999I-1J-699999D01*
G01*
X102527148Y-66959999D02*
G75*
G03*
X103227148Y-66259999I0J700000D01*
G01*
X101227148Y-66259999D02*
G75*
G03*
X101927148Y-66959999I700000J0D01*
G01*
G04 #@! TO.C,JP15*
X82047147Y-56060000D02*
X82047147Y-56660000D01*
X82747147Y-57360000D02*
X84147147Y-57360000D01*
X84147147Y-55360000D02*
X82747147Y-55360000D01*
X84847147Y-56660000D02*
X84847147Y-56060000D01*
X82747147Y-55360000D02*
G75*
G03*
X82047147Y-56060000I-1J-699999D01*
G01*
X82047147Y-56660000D02*
G75*
G03*
X82747147Y-57360000I699999J-1D01*
G01*
X84847147Y-56060000D02*
G75*
G03*
X84147147Y-55360000I-700000J0D01*
G01*
X84147147Y-57360000D02*
G75*
G03*
X84847147Y-56660000I0J700000D01*
G01*
G04 #@! TO.C,JP13*
X107187148Y-123340000D02*
X107787148Y-123340000D01*
X108487148Y-122640000D02*
X108487148Y-121240000D01*
X106487148Y-121240000D02*
X106487148Y-122640000D01*
X107787148Y-120540000D02*
X107187148Y-120540000D01*
X106487148Y-122640000D02*
G75*
G03*
X107187148Y-123340000I699999J-1D01*
G01*
X107787148Y-123340000D02*
G75*
G03*
X108487148Y-122640000I1J699999D01*
G01*
X107187148Y-120540000D02*
G75*
G03*
X106487148Y-121240000I0J-700000D01*
G01*
X108487148Y-121240000D02*
G75*
G03*
X107787148Y-120540000I-700000J0D01*
G01*
G04 #@! TO.C,JP18*
X82097147Y-71900000D02*
X82097147Y-72500000D01*
X82797147Y-73200000D02*
X84197147Y-73200000D01*
X84197147Y-71200000D02*
X82797147Y-71200000D01*
X84897147Y-72500000D02*
X84897147Y-71900000D01*
X82797147Y-71200000D02*
G75*
G03*
X82097147Y-71900000I-1J-699999D01*
G01*
X82097147Y-72500000D02*
G75*
G03*
X82797147Y-73200000I699999J-1D01*
G01*
X84897147Y-71900000D02*
G75*
G03*
X84197147Y-71200000I-700000J0D01*
G01*
X84197147Y-73200000D02*
G75*
G03*
X84897147Y-72500000I0J700000D01*
G01*
G04 #@! TO.C,JP19*
X81947147Y-87660000D02*
X81947147Y-88260000D01*
X82647147Y-88960000D02*
X84047147Y-88960000D01*
X84047147Y-86960000D02*
X82647147Y-86960000D01*
X84747147Y-88260000D02*
X84747147Y-87660000D01*
X82647147Y-86960000D02*
G75*
G03*
X81947147Y-87660000I-1J-699999D01*
G01*
X81947147Y-88260000D02*
G75*
G03*
X82647147Y-88960000I699999J-1D01*
G01*
X84747147Y-87660000D02*
G75*
G03*
X84047147Y-86960000I-700000J0D01*
G01*
X84047147Y-88960000D02*
G75*
G03*
X84747147Y-88260000I0J700000D01*
G01*
G04 #@! TO.C,JP2*
X84897148Y-107200000D02*
X84897148Y-106600000D01*
X84197148Y-105900000D02*
X82797148Y-105900000D01*
X82797148Y-107900000D02*
X84197148Y-107900000D01*
X82097148Y-106600000D02*
X82097148Y-107200000D01*
X84197148Y-107900000D02*
G75*
G03*
X84897148Y-107200000I1J699999D01*
G01*
X84897148Y-106600000D02*
G75*
G03*
X84197148Y-105900000I-699999J1D01*
G01*
X82097148Y-107200000D02*
G75*
G03*
X82797148Y-107900000I700000J0D01*
G01*
X82797148Y-105900000D02*
G75*
G03*
X82097148Y-106600000I0J-700000D01*
G01*
G04 #@! TO.C,JP6*
X94587148Y-120490000D02*
X93987148Y-120490000D01*
X93287148Y-121190000D02*
X93287148Y-122590000D01*
X95287148Y-122590000D02*
X95287148Y-121190000D01*
X93987148Y-123290000D02*
X94587148Y-123290000D01*
X95287148Y-121190000D02*
G75*
G03*
X94587148Y-120490000I-699999J1D01*
G01*
X93987148Y-120490000D02*
G75*
G03*
X93287148Y-121190000I-1J-699999D01*
G01*
X94587148Y-123290000D02*
G75*
G03*
X95287148Y-122590000I0J700000D01*
G01*
X93287148Y-122590000D02*
G75*
G03*
X93987148Y-123290000I700000J0D01*
G01*
G04 #@! TO.C,JP10*
X126487148Y-120490000D02*
X125887148Y-120490000D01*
X125187148Y-121190000D02*
X125187148Y-122590000D01*
X127187148Y-122590000D02*
X127187148Y-121190000D01*
X125887148Y-123290000D02*
X126487148Y-123290000D01*
X127187148Y-121190000D02*
G75*
G03*
X126487148Y-120490000I-699999J1D01*
G01*
X125887148Y-120490000D02*
G75*
G03*
X125187148Y-121190000I-1J-699999D01*
G01*
X126487148Y-123290000D02*
G75*
G03*
X127187148Y-122590000I0J700000D01*
G01*
X125187148Y-122590000D02*
G75*
G03*
X125887148Y-123290000I700000J0D01*
G01*
G04 #@! TO.C,JP3*
X110587148Y-120490000D02*
X109987148Y-120490000D01*
X109287148Y-121190000D02*
X109287148Y-122590000D01*
X111287148Y-122590000D02*
X111287148Y-121190000D01*
X109987148Y-123290000D02*
X110587148Y-123290000D01*
X111287148Y-121190000D02*
G75*
G03*
X110587148Y-120490000I-699999J1D01*
G01*
X109987148Y-120490000D02*
G75*
G03*
X109287148Y-121190000I-1J-699999D01*
G01*
X110587148Y-123290000D02*
G75*
G03*
X111287148Y-122590000I0J700000D01*
G01*
X109287148Y-122590000D02*
G75*
G03*
X109987148Y-123290000I700000J0D01*
G01*
G04 #@! TO.C,JP20*
X123087148Y-123340000D02*
X123687148Y-123340000D01*
X124387148Y-122640000D02*
X124387148Y-121240000D01*
X122387148Y-121240000D02*
X122387148Y-122640000D01*
X123687148Y-120540000D02*
X123087148Y-120540000D01*
X122387148Y-122640000D02*
G75*
G03*
X123087148Y-123340000I699999J-1D01*
G01*
X123687148Y-123340000D02*
G75*
G03*
X124387148Y-122640000I1J699999D01*
G01*
X123087148Y-120540000D02*
G75*
G03*
X122387148Y-121240000I0J-700000D01*
G01*
X124387148Y-121240000D02*
G75*
G03*
X123687148Y-120540000I-700000J0D01*
G01*
G04 #@! TO.C,JP16*
X91187148Y-123340000D02*
X91787148Y-123340000D01*
X92487148Y-122640000D02*
X92487148Y-121240000D01*
X90487148Y-121240000D02*
X90487148Y-122640000D01*
X91787148Y-120540000D02*
X91187148Y-120540000D01*
X90487148Y-122640000D02*
G75*
G03*
X91187148Y-123340000I699999J-1D01*
G01*
X91787148Y-123340000D02*
G75*
G03*
X92487148Y-122640000I1J699999D01*
G01*
X91187148Y-120540000D02*
G75*
G03*
X90487148Y-121240000I0J-700000D01*
G01*
X92487148Y-121240000D02*
G75*
G03*
X91787148Y-120540000I-700000J0D01*
G01*
G04 #@! TO.C,JP17*
X118027148Y-64149999D02*
X117427148Y-64149999D01*
X116727148Y-64849999D02*
X116727148Y-66249999D01*
X118727148Y-66249999D02*
X118727148Y-64849999D01*
X117427148Y-66949999D02*
X118027148Y-66949999D01*
X118727148Y-64849999D02*
G75*
G03*
X118027148Y-64149999I-699999J1D01*
G01*
X117427148Y-64149999D02*
G75*
G03*
X116727148Y-64849999I-1J-699999D01*
G01*
X118027148Y-66949999D02*
G75*
G03*
X118727148Y-66249999I0J700000D01*
G01*
X116727148Y-66249999D02*
G75*
G03*
X117427148Y-66949999I700000J0D01*
G01*
G04 #@! TO.C,JP7*
X114627148Y-66999999D02*
X115227148Y-66999999D01*
X115927148Y-66299999D02*
X115927148Y-64899999D01*
X113927148Y-64899999D02*
X113927148Y-66299999D01*
X115227148Y-64199999D02*
X114627148Y-64199999D01*
X113927148Y-66299999D02*
G75*
G03*
X114627148Y-66999999I699999J-1D01*
G01*
X115227148Y-66999999D02*
G75*
G03*
X115927148Y-66299999I1J699999D01*
G01*
X114627148Y-64199999D02*
G75*
G03*
X113927148Y-64899999I0J-700000D01*
G01*
X115927148Y-64899999D02*
G75*
G03*
X115227148Y-64199999I-700000J0D01*
G01*
G04 #@! TO.C,JP12*
X82047147Y-103800000D02*
X82047147Y-104400000D01*
X82747147Y-105100000D02*
X84147147Y-105100000D01*
X84147147Y-103100000D02*
X82747147Y-103100000D01*
X84847147Y-104400000D02*
X84847147Y-103800000D01*
X82747147Y-103100000D02*
G75*
G03*
X82047147Y-103800000I-1J-699999D01*
G01*
X82047147Y-104400000D02*
G75*
G03*
X82747147Y-105100000I699999J-1D01*
G01*
X84847147Y-103800000D02*
G75*
G03*
X84147147Y-103100000I-700000J0D01*
G01*
X84147147Y-105100000D02*
G75*
G03*
X84847147Y-104400000I0J700000D01*
G01*
G04 #@! TO.C,JP5*
X84897148Y-59460000D02*
X84897148Y-58860000D01*
X84197148Y-58160000D02*
X82797148Y-58160000D01*
X82797148Y-60160000D02*
X84197148Y-60160000D01*
X82097148Y-58860000D02*
X82097148Y-59460000D01*
X84197148Y-60160000D02*
G75*
G03*
X84897148Y-59460000I1J699999D01*
G01*
X84897148Y-58860000D02*
G75*
G03*
X84197148Y-58160000I-699999J1D01*
G01*
X82097148Y-59460000D02*
G75*
G03*
X82797148Y-60160000I700000J0D01*
G01*
X82797148Y-58160000D02*
G75*
G03*
X82097148Y-58860000I0J-700000D01*
G01*
G04 #@! TO.C,JP11*
X75087148Y-123350000D02*
X75687148Y-123350000D01*
X76387148Y-122650000D02*
X76387148Y-121250000D01*
X74387148Y-121250000D02*
X74387148Y-122650000D01*
X75687148Y-120550000D02*
X75087148Y-120550000D01*
X74387148Y-122650000D02*
G75*
G03*
X75087148Y-123350000I699999J-1D01*
G01*
X75687148Y-123350000D02*
G75*
G03*
X76387148Y-122650000I1J699999D01*
G01*
X75087148Y-120550000D02*
G75*
G03*
X74387148Y-121250000I0J-700000D01*
G01*
X76387148Y-121250000D02*
G75*
G03*
X75687148Y-120550000I-700000J0D01*
G01*
G04 #@! TO.C,JP9*
X84797148Y-91060000D02*
X84797148Y-90460000D01*
X84097148Y-89760000D02*
X82697148Y-89760000D01*
X82697148Y-91760000D02*
X84097148Y-91760000D01*
X81997148Y-90460000D02*
X81997148Y-91060000D01*
X84097148Y-91760000D02*
G75*
G03*
X84797148Y-91060000I1J699999D01*
G01*
X84797148Y-90460000D02*
G75*
G03*
X84097148Y-89760000I-699999J1D01*
G01*
X81997148Y-91060000D02*
G75*
G03*
X82697148Y-91760000I700000J0D01*
G01*
X82697148Y-89760000D02*
G75*
G03*
X81997148Y-90460000I0J-700000D01*
G01*
G04 #@! TO.C,JP4*
X99127148Y-67009999D02*
X99727148Y-67009999D01*
X100427148Y-66309999D02*
X100427148Y-64909999D01*
X98427148Y-64909999D02*
X98427148Y-66309999D01*
X99727148Y-64209999D02*
X99127148Y-64209999D01*
X98427148Y-66309999D02*
G75*
G03*
X99127148Y-67009999I699999J-1D01*
G01*
X99727148Y-67009999D02*
G75*
G03*
X100427148Y-66309999I1J699999D01*
G01*
X99127148Y-64209999D02*
G75*
G03*
X98427148Y-64909999I0J-700000D01*
G01*
X100427148Y-64909999D02*
G75*
G03*
X99727148Y-64209999I-700000J0D01*
G01*
G04 #@! TO.C,JP8*
X84947148Y-75300000D02*
X84947148Y-74700000D01*
X84247148Y-74000000D02*
X82847148Y-74000000D01*
X82847148Y-76000000D02*
X84247148Y-76000000D01*
X82147148Y-74700000D02*
X82147148Y-75300000D01*
X84247148Y-76000000D02*
G75*
G03*
X84947148Y-75300000I1J699999D01*
G01*
X84947148Y-74700000D02*
G75*
G03*
X84247148Y-74000000I-699999J1D01*
G01*
X82147148Y-75300000D02*
G75*
G03*
X82847148Y-76000000I700000J0D01*
G01*
X82847148Y-74000000D02*
G75*
G03*
X82147148Y-74700000I0J-700000D01*
G01*
G04 #@! TO.C,JP1*
X78487148Y-120500000D02*
X77887148Y-120500000D01*
X77187148Y-121200000D02*
X77187148Y-122600000D01*
X79187148Y-122600000D02*
X79187148Y-121200000D01*
X77887148Y-123300000D02*
X78487148Y-123300000D01*
X79187148Y-121200000D02*
G75*
G03*
X78487148Y-120500000I-699999J1D01*
G01*
X77887148Y-120500000D02*
G75*
G03*
X77187148Y-121200000I-1J-699999D01*
G01*
X78487148Y-123300000D02*
G75*
G03*
X79187148Y-122600000I0J700000D01*
G01*
X77187148Y-122600000D02*
G75*
G03*
X77887148Y-123300000I700000J0D01*
G01*
G04 #@! TD*
M02*
