G04 #@! TF.GenerationSoftware,KiCad,Pcbnew,7.0.5-7.0.5~ubuntu22.04.1*
G04 #@! TF.CreationDate,2023-06-19T14:44:42+01:00*
G04 #@! TF.ProjectId,logic_board,6c6f6769-635f-4626-9f61-72642e6b6963,rev?*
G04 #@! TF.SameCoordinates,Original*
G04 #@! TF.FileFunction,Paste,Top*
G04 #@! TF.FilePolarity,Positive*
%FSLAX46Y46*%
G04 Gerber Fmt 4.6, Leading zero omitted, Abs format (unit mm)*
G04 Created by KiCad (PCBNEW 7.0.5-7.0.5~ubuntu22.04.1) date 2023-06-19 14:44:42*
%MOMM*%
%LPD*%
G01*
G04 APERTURE LIST*
G04 Aperture macros list*
%AMRoundRect*
0 Rectangle with rounded corners*
0 $1 Rounding radius*
0 $2 $3 $4 $5 $6 $7 $8 $9 X,Y pos of 4 corners*
0 Add a 4 corners polygon primitive as box body*
4,1,4,$2,$3,$4,$5,$6,$7,$8,$9,$2,$3,0*
0 Add four circle primitives for the rounded corners*
1,1,$1+$1,$2,$3*
1,1,$1+$1,$4,$5*
1,1,$1+$1,$6,$7*
1,1,$1+$1,$8,$9*
0 Add four rect primitives between the rounded corners*
20,1,$1+$1,$2,$3,$4,$5,0*
20,1,$1+$1,$4,$5,$6,$7,0*
20,1,$1+$1,$6,$7,$8,$9,0*
20,1,$1+$1,$8,$9,$2,$3,0*%
G04 Aperture macros list end*
%ADD10RoundRect,0.200000X-0.275000X0.200000X-0.275000X-0.200000X0.275000X-0.200000X0.275000X0.200000X0*%
%ADD11RoundRect,0.135000X0.185000X-0.135000X0.185000X0.135000X-0.185000X0.135000X-0.185000X-0.135000X0*%
%ADD12RoundRect,0.243750X0.456250X-0.243750X0.456250X0.243750X-0.456250X0.243750X-0.456250X-0.243750X0*%
%ADD13R,0.700000X0.600000*%
%ADD14RoundRect,0.135000X-0.135000X-0.185000X0.135000X-0.185000X0.135000X0.185000X-0.135000X0.185000X0*%
%ADD15RoundRect,0.200000X-0.200000X-0.275000X0.200000X-0.275000X0.200000X0.275000X-0.200000X0.275000X0*%
%ADD16RoundRect,0.200000X0.200000X0.275000X-0.200000X0.275000X-0.200000X-0.275000X0.200000X-0.275000X0*%
%ADD17RoundRect,0.243750X0.243750X0.456250X-0.243750X0.456250X-0.243750X-0.456250X0.243750X-0.456250X0*%
%ADD18RoundRect,0.135000X-0.185000X0.135000X-0.185000X-0.135000X0.185000X-0.135000X0.185000X0.135000X0*%
%ADD19RoundRect,0.140000X-0.140000X-0.170000X0.140000X-0.170000X0.140000X0.170000X-0.140000X0.170000X0*%
%ADD20R,0.600000X0.700000*%
%ADD21RoundRect,0.243750X-0.243750X-0.456250X0.243750X-0.456250X0.243750X0.456250X-0.243750X0.456250X0*%
%ADD22R,1.500000X2.000000*%
%ADD23R,3.800000X2.000000*%
%ADD24RoundRect,0.140000X0.170000X-0.140000X0.170000X0.140000X-0.170000X0.140000X-0.170000X-0.140000X0*%
%ADD25RoundRect,0.140000X-0.170000X0.140000X-0.170000X-0.140000X0.170000X-0.140000X0.170000X0.140000X0*%
%ADD26R,0.600000X1.450000*%
%ADD27R,0.300000X1.450000*%
%ADD28R,0.900000X1.500000*%
%ADD29R,1.500000X0.900000*%
%ADD30R,0.900000X0.900000*%
G04 APERTURE END LIST*
D10*
G04 #@! TO.C,R7*
X74047148Y-103425000D03*
X74047148Y-105075000D03*
G04 #@! TD*
G04 #@! TO.C,R21*
X73947148Y-87285000D03*
X73947148Y-88935000D03*
G04 #@! TD*
D11*
G04 #@! TO.C,R16*
X94987148Y-122110000D03*
X94987148Y-121090000D03*
G04 #@! TD*
D12*
G04 #@! TO.C,D9*
X73897148Y-76587500D03*
X73897148Y-74712500D03*
G04 #@! TD*
D13*
G04 #@! TO.C,D1*
X131837148Y-84950000D03*
X131837148Y-83550000D03*
G04 #@! TD*
D11*
G04 #@! TO.C,R24*
X126887148Y-122110000D03*
X126887148Y-121090000D03*
G04 #@! TD*
D14*
G04 #@! TO.C,R14*
X83277148Y-59860000D03*
X84297148Y-59860000D03*
G04 #@! TD*
D15*
G04 #@! TO.C,R5*
X74712148Y-131350000D03*
X76362148Y-131350000D03*
G04 #@! TD*
D16*
G04 #@! TO.C,R11*
X102902148Y-56160000D03*
X101252148Y-56160000D03*
G04 #@! TD*
D14*
G04 #@! TO.C,R20*
X83327148Y-75700000D03*
X84347148Y-75700000D03*
G04 #@! TD*
D12*
G04 #@! TO.C,D10*
X73747148Y-92347500D03*
X73747148Y-90472500D03*
G04 #@! TD*
D13*
G04 #@! TO.C,D15*
X102227148Y-64759999D03*
X102227148Y-66159999D03*
G04 #@! TD*
D17*
G04 #@! TO.C,D4*
X111874648Y-131540000D03*
X109999648Y-131540000D03*
G04 #@! TD*
G04 #@! TO.C,D11*
X127774648Y-131540000D03*
X125899648Y-131540000D03*
G04 #@! TD*
D13*
G04 #@! TO.C,D21*
X123387148Y-122740000D03*
X123387148Y-121340000D03*
G04 #@! TD*
D18*
G04 #@! TO.C,R18*
X114227148Y-65379999D03*
X114227148Y-66399999D03*
G04 #@! TD*
D19*
G04 #@! TO.C,C9*
X83347148Y-58560000D03*
X84307148Y-58560000D03*
G04 #@! TD*
D14*
G04 #@! TO.C,R8*
X83277148Y-107600000D03*
X84297148Y-107600000D03*
G04 #@! TD*
D10*
G04 #@! TO.C,R3*
X127741148Y-66009000D03*
X127741148Y-67659000D03*
G04 #@! TD*
D20*
G04 #@! TO.C,D20*
X82547147Y-87960000D03*
X83947147Y-87960000D03*
G04 #@! TD*
D16*
G04 #@! TO.C,R17*
X118402148Y-56150000D03*
X116752148Y-56150000D03*
G04 #@! TD*
D20*
G04 #@! TO.C,D19*
X82697147Y-72200000D03*
X84097147Y-72200000D03*
G04 #@! TD*
G04 #@! TO.C,D13*
X82647147Y-104100000D03*
X84047147Y-104100000D03*
G04 #@! TD*
G04 #@! TO.C,D16*
X82647147Y-56360000D03*
X84047147Y-56360000D03*
G04 #@! TD*
D11*
G04 #@! TO.C,R6*
X78887148Y-122120000D03*
X78887148Y-121100000D03*
G04 #@! TD*
D16*
G04 #@! TO.C,R4*
X133662148Y-82150000D03*
X132012148Y-82150000D03*
G04 #@! TD*
D19*
G04 #@! TO.C,C6*
X83347148Y-106300000D03*
X84307148Y-106300000D03*
G04 #@! TD*
D21*
G04 #@! TO.C,D8*
X113339648Y-55950000D03*
X115214648Y-55950000D03*
G04 #@! TD*
D10*
G04 #@! TO.C,R2*
X129519148Y-66009000D03*
X129519148Y-67659000D03*
G04 #@! TD*
D19*
G04 #@! TO.C,C4*
X108257148Y-78050000D03*
X109217148Y-78050000D03*
G04 #@! TD*
D18*
G04 #@! TO.C,R12*
X98727148Y-65389999D03*
X98727148Y-66409999D03*
G04 #@! TD*
D22*
G04 #@! TO.C,U2*
X110637148Y-80200000D03*
X108337148Y-80200000D03*
D23*
X108337148Y-86500000D03*
D22*
X106037148Y-80200000D03*
G04 #@! TD*
D21*
G04 #@! TO.C,D5*
X97839648Y-55960000D03*
X99714648Y-55960000D03*
G04 #@! TD*
D13*
G04 #@! TO.C,D14*
X107487148Y-122740000D03*
X107487148Y-121340000D03*
G04 #@! TD*
D24*
G04 #@! TO.C,C2*
X103937148Y-78855000D03*
X103937148Y-77895000D03*
G04 #@! TD*
D13*
G04 #@! TO.C,D12*
X75387148Y-122750000D03*
X75387148Y-121350000D03*
G04 #@! TD*
D17*
G04 #@! TO.C,D7*
X95874648Y-131540000D03*
X93999648Y-131540000D03*
G04 #@! TD*
D24*
G04 #@! TO.C,C7*
X109687148Y-122040000D03*
X109687148Y-121080000D03*
G04 #@! TD*
D15*
G04 #@! TO.C,R23*
X122712148Y-131340000D03*
X124362148Y-131340000D03*
G04 #@! TD*
D10*
G04 #@! TO.C,R19*
X74097148Y-71525000D03*
X74097148Y-73175000D03*
G04 #@! TD*
D13*
G04 #@! TO.C,D17*
X91487148Y-122740000D03*
X91487148Y-121340000D03*
G04 #@! TD*
D14*
G04 #@! TO.C,R22*
X83177148Y-91460000D03*
X84197148Y-91460000D03*
G04 #@! TD*
D10*
G04 #@! TO.C,R13*
X74047148Y-55685000D03*
X74047148Y-57335000D03*
G04 #@! TD*
D15*
G04 #@! TO.C,R9*
X106812148Y-131340000D03*
X108462148Y-131340000D03*
G04 #@! TD*
D24*
G04 #@! TO.C,C5*
X77587148Y-122050000D03*
X77587148Y-121090000D03*
G04 #@! TD*
D25*
G04 #@! TO.C,C8*
X100027148Y-65459999D03*
X100027148Y-66419999D03*
G04 #@! TD*
G04 #@! TO.C,C11*
X115527148Y-65449999D03*
X115527148Y-66409999D03*
G04 #@! TD*
D17*
G04 #@! TO.C,D2*
X79774648Y-131550000D03*
X77899648Y-131550000D03*
G04 #@! TD*
D24*
G04 #@! TO.C,C10*
X93687148Y-122040000D03*
X93687148Y-121080000D03*
G04 #@! TD*
D15*
G04 #@! TO.C,R15*
X90812148Y-131340000D03*
X92462148Y-131340000D03*
G04 #@! TD*
D14*
G04 #@! TO.C,R1*
X133037148Y-83450000D03*
X134057148Y-83450000D03*
G04 #@! TD*
D12*
G04 #@! TO.C,D6*
X73847148Y-60747500D03*
X73847148Y-58872500D03*
G04 #@! TD*
D24*
G04 #@! TO.C,C14*
X125587148Y-122040000D03*
X125587148Y-121080000D03*
G04 #@! TD*
D26*
G04 #@! TO.C,J4*
X128387148Y-62595000D03*
X127587148Y-62595000D03*
D27*
X126387148Y-62595000D03*
X125387148Y-62595000D03*
X124887148Y-62595000D03*
X123887148Y-62595000D03*
D26*
X122687148Y-62595000D03*
X121887148Y-62595000D03*
X121887148Y-62595000D03*
X122687148Y-62595000D03*
D27*
X123387148Y-62595000D03*
X124387148Y-62595000D03*
X125887148Y-62595000D03*
X126887148Y-62595000D03*
D26*
X127587148Y-62595000D03*
X128387148Y-62595000D03*
G04 #@! TD*
D12*
G04 #@! TO.C,D3*
X73847148Y-108487500D03*
X73847148Y-106612500D03*
G04 #@! TD*
D13*
G04 #@! TO.C,D18*
X117727148Y-64749999D03*
X117727148Y-66149999D03*
G04 #@! TD*
D11*
G04 #@! TO.C,R10*
X110987148Y-122110000D03*
X110987148Y-121090000D03*
G04 #@! TD*
D28*
G04 #@! TO.C,U1*
X136157148Y-88600000D03*
X134887148Y-88600000D03*
X133617148Y-88600000D03*
X132347148Y-88600000D03*
X131077148Y-88600000D03*
X129807148Y-88600000D03*
X128537148Y-88600000D03*
X127267148Y-88600000D03*
X125997148Y-88600000D03*
X124727148Y-88600000D03*
X123457148Y-88600000D03*
X122187148Y-88600000D03*
X120917148Y-88600000D03*
X119647148Y-88600000D03*
D29*
X118397148Y-90365000D03*
X118397148Y-91635000D03*
X118397148Y-92905000D03*
X118397148Y-94175000D03*
X118397148Y-95445000D03*
X118397148Y-96715000D03*
X118397148Y-97985000D03*
X118397148Y-99255000D03*
X118397148Y-100525000D03*
X118397148Y-101795000D03*
X118397148Y-103065000D03*
X118397148Y-104335000D03*
D28*
X119647148Y-106100000D03*
X120917148Y-106100000D03*
X122187148Y-106100000D03*
X123457148Y-106100000D03*
X124727148Y-106100000D03*
X125997148Y-106100000D03*
X127267148Y-106100000D03*
X128537148Y-106100000D03*
X129807148Y-106100000D03*
X131077148Y-106100000D03*
X132347148Y-106100000D03*
X133617148Y-106100000D03*
X134887148Y-106100000D03*
X136157148Y-106100000D03*
D30*
X129837148Y-94450000D03*
X128437148Y-94450000D03*
X127037148Y-94450000D03*
X127037148Y-94450000D03*
X129837148Y-95850000D03*
X129837148Y-95850000D03*
X128437148Y-95850000D03*
X127037148Y-95850000D03*
X129837148Y-97250000D03*
X128437148Y-97250000D03*
X127037148Y-97250000D03*
G04 #@! TD*
D19*
G04 #@! TO.C,C12*
X83397148Y-74400000D03*
X84357148Y-74400000D03*
G04 #@! TD*
G04 #@! TO.C,C13*
X83247148Y-90160000D03*
X84207148Y-90160000D03*
G04 #@! TD*
M02*
