M48
; DRILL file {KiCad 7.0.5-7.0.5~ubuntu22.04.1} date Mon Jun 19 14:44:42 2023
; FORMAT={-:-/ absolute / metric / decimal}
; #@! TF.CreationDate,2023-06-19T14:44:42+01:00
; #@! TF.GenerationSoftware,Kicad,Pcbnew,7.0.5-7.0.5~ubuntu22.04.1
; #@! TF.FileFunction,MixedPlating,1,2
FMAT,2
METRIC
; #@! TA.AperFunction,Plated,PTH,ViaDrill
T1C0.400
; #@! TA.AperFunction,Plated,PTH,ComponentDrill
T2C0.600
; #@! TA.AperFunction,Plated,PTH,ComponentDrill
T3C0.750
; #@! TA.AperFunction,Plated,PTH,ComponentDrill
T4C0.950
; #@! TA.AperFunction,Plated,PTH,ComponentDrill
T5C1.000
; #@! TA.AperFunction,Plated,PTH,ComponentDrill
T6C1.400
; #@! TA.AperFunction,Plated,PTH,ComponentDrill
T7C1.500
; #@! TA.AperFunction,Plated,PTH,ComponentDrill
T8C1.700
; #@! TA.AperFunction,NonPlated,NPTH,ComponentDrill
T9C0.650
; #@! TA.AperFunction,NonPlated,NPTH,ComponentDrill
T10C3.200
%
G90
G05
T1
X76.187Y-123.35
X76.537Y-61.55
X76.537Y-125.55
X76.887Y-120.65
X77.537Y-61.55
X79.537Y-57.55
X79.587Y-122.95
X80.537Y-59.55
X80.537Y-106.55
X81.537Y-67.55
X81.947Y-88.76
X82.047Y-57.16
X82.047Y-104.9
X82.097Y-73.0
X82.347Y-92.16
X82.447Y-60.56
X82.447Y-108.3
X82.497Y-76.4
X82.537Y-83.55
X84.537Y-61.55
X84.647Y-89.46
X84.747Y-57.86
X84.747Y-105.6
X84.797Y-73.7
X85.6Y-91.8
X86.537Y-72.55
X86.537Y-87.55
X87.4Y-100.0
X87.537Y-69.55
X87.537Y-88.55
X87.537Y-106.55
X87.537Y-109.55
X87.537Y-112.55
X87.537Y-115.55
X87.9Y-84.9
X88.537Y-72.55
X88.537Y-87.55
X89.1Y-119.0
X89.537Y-88.55
X89.6Y-91.8
X90.537Y-72.55
X90.537Y-103.55
X91.537Y-115.55
X92.2Y-84.8
X92.287Y-123.34
X92.689Y-118.396
X92.987Y-120.64
X93.537Y-69.55
X93.537Y-100.55
X94.537Y-113.55
X94.561Y-118.05
X95.537Y-83.55
X95.537Y-97.55
X95.537Y-129.55
X95.687Y-122.94
X95.737Y-93.758
X96.245Y-123.984
X96.499Y-121.19
X96.537Y-72.55
X96.753Y-95.282
X96.8Y-91.6
X98.027Y-64.56
X98.537Y-109.55
X99.537Y-75.55
X99.537Y-80.55
X99.537Y-82.55
X100.537Y-68.55
X100.727Y-66.86
X101.427Y-64.16
X101.537Y-118.55
X101.579Y-77.502
X102.537Y-70.55
X102.75Y-89.2
X103.4Y-104.1
X103.537Y-55.25
X104.537Y-72.55
X104.537Y-115.55
X104.627Y-86.392
X105.537Y-120.55
X105.643Y-82.582
X105.643Y-87.916
X106.2Y-113.6
X106.405Y-78.264
X106.537Y-129.55
X106.913Y-102.394
X107.537Y-71.55
X107.8Y-98.9
X107.85Y-88.75
X107.929Y-76.74
X108.1Y-91.7
X108.287Y-123.34
X108.537Y-117.55
X108.987Y-120.64
X109.2Y-83.3
X109.2Y-110.6
X111.687Y-122.94
X112.537Y-80.55
X112.537Y-120.55
X112.8Y-106.6
X113.527Y-64.55
X113.537Y-69.55
X113.771Y-95.536
X114.4Y-87.9
X115.537Y-79.55
X115.7Y-83.3
X116.057Y-97.314
X116.227Y-66.85
X116.537Y-118.55
X116.565Y-91.584
X116.82Y-95.791
X116.927Y-64.15
X117.537Y-106.55
X118.3Y-86.6
X119.0Y-83.4
X119.0Y-114.8
X119.337Y-56.15
X119.537Y-118.55
X119.537Y-123.55
X119.807Y-86.6
X119.867Y-95.028
X119.867Y-101.632
X120.537Y-77.55
X120.537Y-97.55
X120.537Y-99.55
X120.537Y-117.55
X120.55Y-87.342
X120.883Y-103.918
X121.2Y-112.6
X121.5Y-83.5
X122.661Y-66.072
X123.423Y-65.564
X123.537Y-86.25
X124.112Y-64.45
X124.185Y-111.549
X124.187Y-123.34
X124.537Y-116.55
X124.537Y-118.55
X124.693Y-110.014
X124.887Y-120.64
X125.037Y-86.05
X125.162Y-64.45
X125.455Y-111.549
X126.537Y-113.55
X126.979Y-61.029
X127.537Y-75.55
X127.587Y-122.94
X127.995Y-64.802
X128.537Y-128.55
X128.757Y-110.014
X129.7Y-79.0
X130.027Y-84.106
X131.805Y-90.71
X132.313Y-104.68
X133.537Y-92.55
X133.583Y-89.948
X134.537Y-110.55
X135.537Y-84.55
X135.537Y-103.55
X136.537Y-85.55
X136.537Y-92.55
T3
X76.137Y-128.05
X77.247Y-88.71
X77.247Y-90.71
X77.347Y-57.11
X77.347Y-59.11
X77.347Y-104.85
X77.347Y-106.85
X77.397Y-72.95
X77.397Y-74.95
X78.137Y-128.05
X82.837Y-120.75
X84.547Y-95.41
X84.547Y-97.41
X84.547Y-99.41
X84.647Y-63.81
X84.647Y-65.81
X84.647Y-67.81
X84.647Y-111.55
X84.647Y-113.55
X84.647Y-115.55
X84.697Y-79.65
X84.697Y-81.65
X84.697Y-83.65
X84.837Y-120.75
X86.837Y-120.75
X90.777Y-66.76
X92.237Y-128.04
X92.777Y-66.76
X94.237Y-128.04
X94.777Y-66.76
X98.937Y-120.74
X99.237Y-59.55
X100.937Y-120.74
X101.237Y-59.55
X102.937Y-120.74
X106.277Y-66.75
X108.237Y-128.04
X108.277Y-66.75
X110.237Y-128.04
X110.277Y-66.75
X114.937Y-120.74
X114.977Y-59.45
X116.937Y-120.74
X116.977Y-59.45
X118.937Y-120.74
X124.137Y-128.04
X126.137Y-128.04
X130.837Y-120.74
X132.837Y-120.74
X134.837Y-120.74
T4
X133.45Y-59.75
X133.45Y-62.25
X133.45Y-64.75
T5
X100.137Y-92.45
X100.137Y-94.99
X100.137Y-97.53
X100.137Y-100.07
X100.137Y-102.61
X100.137Y-105.15
X111.2Y-91.46
X111.2Y-94.0
X111.2Y-96.54
T6
X121.237Y-70.35
X121.237Y-75.05
X121.237Y-79.75
T7
X76.687Y-97.65
X76.787Y-66.05
X76.787Y-113.79
X76.837Y-81.89
X85.077Y-128.61
X92.337Y-58.9
X101.177Y-128.6
X108.037Y-58.89
X117.177Y-128.6
X133.077Y-128.6
T8
X74.147Y-95.11
X74.147Y-100.19
X74.247Y-63.51
X74.247Y-68.59
X74.247Y-111.25
X74.247Y-116.33
X74.297Y-79.35
X74.297Y-84.43
X79.227Y-95.11
X79.227Y-100.19
X79.327Y-63.51
X79.327Y-68.59
X79.327Y-111.25
X79.327Y-116.33
X79.377Y-79.35
X79.377Y-84.43
X82.537Y-126.07
X82.537Y-131.15
X87.617Y-126.07
X87.617Y-131.15
X89.797Y-56.36
X89.797Y-61.44
X94.877Y-56.36
X94.877Y-61.44
X98.637Y-126.06
X98.637Y-131.14
X103.717Y-126.06
X103.717Y-131.14
X105.497Y-56.35
X105.497Y-61.43
X110.577Y-56.35
X110.577Y-61.43
X114.637Y-126.06
X114.637Y-131.14
X119.717Y-126.06
X119.717Y-131.14
X130.537Y-126.06
X130.537Y-131.14
X135.617Y-126.06
X135.617Y-131.14
T9
X122.247Y-61.15
X128.027Y-61.15
T10
X114.2Y-114.0
X114.2Y-74.0
X134.2Y-74.0
X134.2Y-114.0
T2
X120.817Y-57.8G85X120.817Y-57.2
G05
X120.817Y-62.23G85X120.817Y-61.13
G05
X129.457Y-57.8G85X129.457Y-57.2
G05
X129.457Y-62.23G85X129.457Y-61.13
G05
T0
M30
