G04 #@! TF.GenerationSoftware,KiCad,Pcbnew,7.0.5-7.0.5~ubuntu22.04.1*
G04 #@! TF.CreationDate,2023-06-19T14:44:07+01:00*
G04 #@! TF.ProjectId,panel,70616e65-6c2e-46b6-9963-61645f706362,v01*
G04 #@! TF.SameCoordinates,Original*
G04 #@! TF.FileFunction,Paste,Top*
G04 #@! TF.FilePolarity,Positive*
%FSLAX46Y46*%
G04 Gerber Fmt 4.6, Leading zero omitted, Abs format (unit mm)*
G04 Created by KiCad (PCBNEW 7.0.5-7.0.5~ubuntu22.04.1) date 2023-06-19 14:44:07*
%MOMM*%
%LPD*%
G01*
G04 APERTURE LIST*
G04 Aperture macros list*
%AMRoundRect*
0 Rectangle with rounded corners*
0 $1 Rounding radius*
0 $2 $3 $4 $5 $6 $7 $8 $9 X,Y pos of 4 corners*
0 Add a 4 corners polygon primitive as box body*
4,1,4,$2,$3,$4,$5,$6,$7,$8,$9,$2,$3,0*
0 Add four circle primitives for the rounded corners*
1,1,$1+$1,$2,$3*
1,1,$1+$1,$4,$5*
1,1,$1+$1,$6,$7*
1,1,$1+$1,$8,$9*
0 Add four rect primitives between the rounded corners*
20,1,$1+$1,$2,$3,$4,$5,0*
20,1,$1+$1,$4,$5,$6,$7,0*
20,1,$1+$1,$6,$7,$8,$9,0*
20,1,$1+$1,$8,$9,$2,$3,0*%
%AMFreePoly0*
4,1,9,3.862500,-0.866500,0.737500,-0.866500,0.737500,-0.450000,-0.737500,-0.450000,-0.737500,0.450000,0.737500,0.450000,0.737500,0.866500,3.862500,0.866500,3.862500,-0.866500,3.862500,-0.866500,$1*%
G04 Aperture macros list end*
%ADD10RoundRect,0.250000X1.425000X-0.362500X1.425000X0.362500X-1.425000X0.362500X-1.425000X-0.362500X0*%
%ADD11RoundRect,0.140000X0.140000X0.170000X-0.140000X0.170000X-0.140000X-0.170000X0.140000X-0.170000X0*%
%ADD12RoundRect,0.162500X0.825000X0.162500X-0.825000X0.162500X-0.825000X-0.162500X0.825000X-0.162500X0*%
%ADD13RoundRect,0.225000X0.250000X-0.225000X0.250000X0.225000X-0.250000X0.225000X-0.250000X-0.225000X0*%
%ADD14RoundRect,0.200000X0.200000X0.275000X-0.200000X0.275000X-0.200000X-0.275000X0.200000X-0.275000X0*%
%ADD15R,2.000000X1.500000*%
%ADD16R,2.000000X3.800000*%
%ADD17RoundRect,0.200000X-0.275000X0.200000X-0.275000X-0.200000X0.275000X-0.200000X0.275000X0.200000X0*%
%ADD18RoundRect,0.200000X-0.200000X-0.275000X0.200000X-0.275000X0.200000X0.275000X-0.200000X0.275000X0*%
%ADD19R,0.900000X1.300000*%
%ADD20FreePoly0,270.000000*%
%ADD21RoundRect,0.200000X0.275000X-0.200000X0.275000X0.200000X-0.275000X0.200000X-0.275000X-0.200000X0*%
%ADD22RoundRect,0.140000X-0.170000X0.140000X-0.170000X-0.140000X0.170000X-0.140000X0.170000X0.140000X0*%
%ADD23FreePoly0,90.000000*%
%ADD24RoundRect,0.225000X-0.250000X0.225000X-0.250000X-0.225000X0.250000X-0.225000X0.250000X0.225000X0*%
%ADD25RoundRect,0.140000X-0.140000X-0.170000X0.140000X-0.170000X0.140000X0.170000X-0.140000X0.170000X0*%
%ADD26RoundRect,0.162500X-0.825000X-0.162500X0.825000X-0.162500X0.825000X0.162500X-0.825000X0.162500X0*%
%ADD27RoundRect,0.140000X0.170000X-0.140000X0.170000X0.140000X-0.170000X0.140000X-0.170000X-0.140000X0*%
%ADD28RoundRect,0.250000X-1.425000X0.362500X-1.425000X-0.362500X1.425000X-0.362500X1.425000X0.362500X0*%
G04 APERTURE END LIST*
D10*
G04 #@! TO.C,R1*
X55500000Y-28212500D03*
X55500000Y-22287500D03*
G04 #@! TD*
D11*
G04 #@! TO.C,C1*
X77460000Y-108250000D03*
X76500000Y-108250000D03*
G04 #@! TD*
D12*
G04 #@! TO.C,U1*
X26287500Y-142905000D03*
X26287500Y-141635000D03*
X26287500Y-140365000D03*
X26287500Y-139095000D03*
X21212500Y-139095000D03*
X21212500Y-140365000D03*
X21212500Y-141635000D03*
X21212500Y-142905000D03*
G04 #@! TD*
D13*
G04 #@! TO.C,C2*
X80500000Y-115525000D03*
X80500000Y-113975000D03*
G04 #@! TD*
D14*
G04 #@! TO.C,R4*
X71575000Y-42250000D03*
X69925000Y-42250000D03*
G04 #@! TD*
D15*
G04 #@! TO.C,U2*
X60150000Y-171550000D03*
X60150000Y-169250000D03*
X60150000Y-166950000D03*
D16*
X53850000Y-169250000D03*
G04 #@! TD*
D17*
G04 #@! TO.C,R3*
X28750000Y-141925000D03*
X28750000Y-143575000D03*
G04 #@! TD*
D12*
G04 #@! TO.C,U1*
X26287500Y-80905000D03*
X26287500Y-79635000D03*
X26287500Y-78365000D03*
X26287500Y-77095000D03*
X21212500Y-77095000D03*
X21212500Y-78365000D03*
X21212500Y-79635000D03*
X21212500Y-80905000D03*
G04 #@! TD*
D18*
G04 #@! TO.C,R4*
X30425000Y-141750000D03*
X32075000Y-141750000D03*
G04 #@! TD*
D19*
G04 #@! TO.C,U3*
X26500000Y-68100000D03*
D20*
X25000000Y-68187500D03*
D19*
X23500000Y-68100000D03*
G04 #@! TD*
D21*
G04 #@! TO.C,R6*
X6000000Y-95615000D03*
X6000000Y-93965000D03*
G04 #@! TD*
D17*
G04 #@! TO.C,R3*
X28750000Y-17925000D03*
X28750000Y-19575000D03*
G04 #@! TD*
G04 #@! TO.C,R5*
X2500000Y-93965000D03*
X2500000Y-95615000D03*
G04 #@! TD*
G04 #@! TO.C,R6*
X96000000Y-150385000D03*
X96000000Y-152035000D03*
G04 #@! TD*
D19*
G04 #@! TO.C,U3*
X26500000Y-6100000D03*
D20*
X25000000Y-6187500D03*
D19*
X23500000Y-6100000D03*
G04 #@! TD*
D22*
G04 #@! TO.C,C4*
X72500000Y-106520000D03*
X72500000Y-107480000D03*
G04 #@! TD*
D19*
G04 #@! TO.C,U3*
X75500000Y-53900000D03*
D23*
X77000000Y-53812500D03*
D19*
X78500000Y-53900000D03*
G04 #@! TD*
D24*
G04 #@! TO.C,C3*
X73250000Y-52000000D03*
X73250000Y-53550000D03*
G04 #@! TD*
D19*
G04 #@! TO.C,U3*
X75500000Y-177900000D03*
D23*
X77000000Y-177812500D03*
D19*
X78500000Y-177900000D03*
G04 #@! TD*
D10*
G04 #@! TO.C,R1*
X55500000Y-152212500D03*
X55500000Y-146287500D03*
G04 #@! TD*
D21*
G04 #@! TO.C,R3*
X73250000Y-104075000D03*
X73250000Y-102425000D03*
G04 #@! TD*
D14*
G04 #@! TO.C,R2*
X36825000Y-78750000D03*
X35175000Y-78750000D03*
G04 #@! TD*
D21*
G04 #@! TO.C,R3*
X73250000Y-166075000D03*
X73250000Y-164425000D03*
G04 #@! TD*
D14*
G04 #@! TO.C,R2*
X36825000Y-140750000D03*
X35175000Y-140750000D03*
G04 #@! TD*
D11*
G04 #@! TO.C,C1*
X77460000Y-46250000D03*
X76500000Y-46250000D03*
G04 #@! TD*
D13*
G04 #@! TO.C,C2*
X80500000Y-53525000D03*
X80500000Y-51975000D03*
G04 #@! TD*
D19*
G04 #@! TO.C,U3*
X75500000Y-115900000D03*
D23*
X77000000Y-115812500D03*
D19*
X78500000Y-115900000D03*
G04 #@! TD*
D18*
G04 #@! TO.C,R2*
X65175000Y-105250000D03*
X66825000Y-105250000D03*
G04 #@! TD*
D14*
G04 #@! TO.C,R4*
X71575000Y-104250000D03*
X69925000Y-104250000D03*
G04 #@! TD*
D25*
G04 #@! TO.C,C1*
X24540000Y-75750000D03*
X25500000Y-75750000D03*
G04 #@! TD*
D14*
G04 #@! TO.C,R4*
X71575000Y-166250000D03*
X69925000Y-166250000D03*
G04 #@! TD*
D11*
G04 #@! TO.C,C5*
X81460000Y-162750000D03*
X80500000Y-162750000D03*
G04 #@! TD*
D12*
G04 #@! TO.C,U1*
X26287500Y-18905000D03*
X26287500Y-17635000D03*
X26287500Y-16365000D03*
X26287500Y-15095000D03*
X21212500Y-15095000D03*
X21212500Y-16365000D03*
X21212500Y-17635000D03*
X21212500Y-18905000D03*
G04 #@! TD*
D10*
G04 #@! TO.C,R1*
X55500000Y-90212500D03*
X55500000Y-84287500D03*
G04 #@! TD*
D26*
G04 #@! TO.C,U1*
X75712500Y-103095000D03*
X75712500Y-104365000D03*
X75712500Y-105635000D03*
X75712500Y-106905000D03*
X80787500Y-106905000D03*
X80787500Y-105635000D03*
X80787500Y-104365000D03*
X80787500Y-103095000D03*
G04 #@! TD*
D15*
G04 #@! TO.C,U2*
X60150000Y-109550000D03*
X60150000Y-107250000D03*
X60150000Y-104950000D03*
D16*
X53850000Y-107250000D03*
G04 #@! TD*
D13*
G04 #@! TO.C,C2*
X80500000Y-177525000D03*
X80500000Y-175975000D03*
G04 #@! TD*
D18*
G04 #@! TO.C,R4*
X30425000Y-17750000D03*
X32075000Y-17750000D03*
G04 #@! TD*
D17*
G04 #@! TO.C,R6*
X96000000Y-88385000D03*
X96000000Y-90035000D03*
G04 #@! TD*
G04 #@! TO.C,R5*
X2500000Y-155965000D03*
X2500000Y-157615000D03*
G04 #@! TD*
D27*
G04 #@! TO.C,C4*
X29500000Y-77480000D03*
X29500000Y-76520000D03*
G04 #@! TD*
D22*
G04 #@! TO.C,C4*
X72500000Y-168520000D03*
X72500000Y-169480000D03*
G04 #@! TD*
D26*
G04 #@! TO.C,U1*
X75712500Y-165095000D03*
X75712500Y-166365000D03*
X75712500Y-167635000D03*
X75712500Y-168905000D03*
X80787500Y-168905000D03*
X80787500Y-167635000D03*
X80787500Y-166365000D03*
X80787500Y-165095000D03*
G04 #@! TD*
D21*
G04 #@! TO.C,R6*
X6000000Y-33615000D03*
X6000000Y-31965000D03*
G04 #@! TD*
D25*
G04 #@! TO.C,C5*
X20540000Y-145250000D03*
X21500000Y-145250000D03*
G04 #@! TD*
D13*
G04 #@! TO.C,C3*
X28750000Y-70000000D03*
X28750000Y-68450000D03*
G04 #@! TD*
D28*
G04 #@! TO.C,R1*
X46500000Y-31787500D03*
X46500000Y-37712500D03*
G04 #@! TD*
D21*
G04 #@! TO.C,R5*
X99500000Y-152035000D03*
X99500000Y-150385000D03*
G04 #@! TD*
D22*
G04 #@! TO.C,C4*
X72500000Y-44520000D03*
X72500000Y-45480000D03*
G04 #@! TD*
D14*
G04 #@! TO.C,R2*
X36825000Y-16750000D03*
X35175000Y-16750000D03*
G04 #@! TD*
D25*
G04 #@! TO.C,C5*
X20540000Y-21250000D03*
X21500000Y-21250000D03*
G04 #@! TD*
D17*
G04 #@! TO.C,R3*
X28750000Y-79925000D03*
X28750000Y-81575000D03*
G04 #@! TD*
D27*
G04 #@! TO.C,C4*
X29500000Y-139480000D03*
X29500000Y-138520000D03*
G04 #@! TD*
D15*
G04 #@! TO.C,U2*
X41850000Y-136450000D03*
X41850000Y-138750000D03*
X41850000Y-141050000D03*
D16*
X48150000Y-138750000D03*
G04 #@! TD*
D21*
G04 #@! TO.C,R6*
X6000000Y-157615000D03*
X6000000Y-155965000D03*
G04 #@! TD*
G04 #@! TO.C,R3*
X73250000Y-42075000D03*
X73250000Y-40425000D03*
G04 #@! TD*
D24*
G04 #@! TO.C,C2*
X21500000Y-130475000D03*
X21500000Y-132025000D03*
G04 #@! TD*
D28*
G04 #@! TO.C,R1*
X46500000Y-93787500D03*
X46500000Y-99712500D03*
G04 #@! TD*
D18*
G04 #@! TO.C,R2*
X65175000Y-167250000D03*
X66825000Y-167250000D03*
G04 #@! TD*
D21*
G04 #@! TO.C,R5*
X99500000Y-90035000D03*
X99500000Y-88385000D03*
G04 #@! TD*
G04 #@! TO.C,R5*
X99500000Y-28035000D03*
X99500000Y-26385000D03*
G04 #@! TD*
D13*
G04 #@! TO.C,C3*
X28750000Y-8000000D03*
X28750000Y-6450000D03*
G04 #@! TD*
D15*
G04 #@! TO.C,U2*
X41850000Y-12450000D03*
X41850000Y-14750000D03*
X41850000Y-17050000D03*
D16*
X48150000Y-14750000D03*
G04 #@! TD*
D18*
G04 #@! TO.C,R4*
X30425000Y-79750000D03*
X32075000Y-79750000D03*
G04 #@! TD*
G04 #@! TO.C,R2*
X65175000Y-43250000D03*
X66825000Y-43250000D03*
G04 #@! TD*
D17*
G04 #@! TO.C,R6*
X96000000Y-26385000D03*
X96000000Y-28035000D03*
G04 #@! TD*
G04 #@! TO.C,R5*
X2500000Y-31965000D03*
X2500000Y-33615000D03*
G04 #@! TD*
D24*
G04 #@! TO.C,C3*
X73250000Y-176000000D03*
X73250000Y-177550000D03*
G04 #@! TD*
D25*
G04 #@! TO.C,C5*
X20540000Y-83250000D03*
X21500000Y-83250000D03*
G04 #@! TD*
D28*
G04 #@! TO.C,R1*
X46500000Y-155787500D03*
X46500000Y-161712500D03*
G04 #@! TD*
D24*
G04 #@! TO.C,C3*
X73250000Y-114000000D03*
X73250000Y-115550000D03*
G04 #@! TD*
D25*
G04 #@! TO.C,C1*
X24540000Y-137750000D03*
X25500000Y-137750000D03*
G04 #@! TD*
D13*
G04 #@! TO.C,C3*
X28750000Y-132000000D03*
X28750000Y-130450000D03*
G04 #@! TD*
D26*
G04 #@! TO.C,U1*
X75712500Y-41095000D03*
X75712500Y-42365000D03*
X75712500Y-43635000D03*
X75712500Y-44905000D03*
X80787500Y-44905000D03*
X80787500Y-43635000D03*
X80787500Y-42365000D03*
X80787500Y-41095000D03*
G04 #@! TD*
D24*
G04 #@! TO.C,C2*
X21500000Y-6475000D03*
X21500000Y-8025000D03*
G04 #@! TD*
G04 #@! TO.C,C2*
X21500000Y-68475000D03*
X21500000Y-70025000D03*
G04 #@! TD*
D11*
G04 #@! TO.C,C5*
X81460000Y-38750000D03*
X80500000Y-38750000D03*
G04 #@! TD*
D27*
G04 #@! TO.C,C4*
X29500000Y-15480000D03*
X29500000Y-14520000D03*
G04 #@! TD*
D15*
G04 #@! TO.C,U2*
X60150000Y-47550000D03*
X60150000Y-45250000D03*
X60150000Y-42950000D03*
D16*
X53850000Y-45250000D03*
G04 #@! TD*
D19*
G04 #@! TO.C,U3*
X26500000Y-130100000D03*
D20*
X25000000Y-130187500D03*
D19*
X23500000Y-130100000D03*
G04 #@! TD*
D11*
G04 #@! TO.C,C1*
X77460000Y-170250000D03*
X76500000Y-170250000D03*
G04 #@! TD*
D15*
G04 #@! TO.C,U2*
X41850000Y-74450000D03*
X41850000Y-76750000D03*
X41850000Y-79050000D03*
D16*
X48150000Y-76750000D03*
G04 #@! TD*
D25*
G04 #@! TO.C,C1*
X24540000Y-13750000D03*
X25500000Y-13750000D03*
G04 #@! TD*
D11*
G04 #@! TO.C,C5*
X81460000Y-100750000D03*
X80500000Y-100750000D03*
G04 #@! TD*
M02*
