G04 #@! TF.GenerationSoftware,KiCad,Pcbnew,7.0.5-7.0.5~ubuntu22.04.1*
G04 #@! TF.CreationDate,2023-06-19T14:44:07+01:00*
G04 #@! TF.ProjectId,panel,70616e65-6c2e-46b6-9963-61645f706362,v01*
G04 #@! TF.SameCoordinates,Original*
G04 #@! TF.FileFunction,Soldermask,Bot*
G04 #@! TF.FilePolarity,Negative*
%FSLAX46Y46*%
G04 Gerber Fmt 4.6, Leading zero omitted, Abs format (unit mm)*
G04 Created by KiCad (PCBNEW 7.0.5-7.0.5~ubuntu22.04.1) date 2023-06-19 14:44:07*
%MOMM*%
%LPD*%
G01*
G04 APERTURE LIST*
G04 Aperture macros list*
%AMRoundRect*
0 Rectangle with rounded corners*
0 $1 Rounding radius*
0 $2 $3 $4 $5 $6 $7 $8 $9 X,Y pos of 4 corners*
0 Add a 4 corners polygon primitive as box body*
4,1,4,$2,$3,$4,$5,$6,$7,$8,$9,$2,$3,0*
0 Add four circle primitives for the rounded corners*
1,1,$1+$1,$2,$3*
1,1,$1+$1,$4,$5*
1,1,$1+$1,$6,$7*
1,1,$1+$1,$8,$9*
0 Add four rect primitives between the rounded corners*
20,1,$1+$1,$2,$3,$4,$5,0*
20,1,$1+$1,$4,$5,$6,$7,0*
20,1,$1+$1,$6,$7,$8,$9,0*
20,1,$1+$1,$8,$9,$2,$3,0*%
%AMFreePoly0*
4,1,19,0.500000,-0.750000,0.000000,-0.750000,0.000000,-0.744911,-0.071157,-0.744911,-0.207708,-0.704816,-0.327430,-0.627875,-0.420627,-0.520320,-0.479746,-0.390866,-0.500000,-0.250000,-0.500000,0.250000,-0.479746,0.390866,-0.420627,0.520320,-0.327430,0.627875,-0.207708,0.704816,-0.071157,0.744911,0.000000,0.744911,0.000000,0.750000,0.500000,0.750000,0.500000,-0.750000,0.500000,-0.750000,
$1*%
%AMFreePoly1*
4,1,19,0.000000,0.744911,0.071157,0.744911,0.207708,0.704816,0.327430,0.627875,0.420627,0.520320,0.479746,0.390866,0.500000,0.250000,0.500000,-0.250000,0.479746,-0.390866,0.420627,-0.520320,0.327430,-0.627875,0.207708,-0.704816,0.071157,-0.744911,0.000000,-0.744911,0.000000,-0.750000,-0.500000,-0.750000,-0.500000,0.750000,0.000000,0.750000,0.000000,0.744911,0.000000,0.744911,
$1*%
G04 Aperture macros list end*
%ADD10RoundRect,0.200100X0.949900X-0.949900X0.949900X0.949900X-0.949900X0.949900X-0.949900X-0.949900X0*%
%ADD11C,2.500000*%
%ADD12C,3.200000*%
%ADD13C,0.500000*%
%ADD14C,8.000000*%
%ADD15C,1.440000*%
%ADD16RoundRect,0.250001X0.799999X-0.799999X0.799999X0.799999X-0.799999X0.799999X-0.799999X-0.799999X0*%
%ADD17C,2.100000*%
%ADD18R,1.700000X1.700000*%
%ADD19O,1.700000X1.700000*%
%ADD20RoundRect,0.200100X-0.949900X0.949900X-0.949900X-0.949900X0.949900X-0.949900X0.949900X0.949900X0*%
%ADD21RoundRect,0.250000X0.625000X-0.350000X0.625000X0.350000X-0.625000X0.350000X-0.625000X-0.350000X0*%
%ADD22O,1.750000X1.200000*%
%ADD23RoundRect,0.250000X0.350000X0.625000X-0.350000X0.625000X-0.350000X-0.625000X0.350000X-0.625000X0*%
%ADD24O,1.200000X1.750000*%
%ADD25RoundRect,0.250000X-0.350000X-0.625000X0.350000X-0.625000X0.350000X0.625000X-0.350000X0.625000X0*%
%ADD26RoundRect,0.250000X-0.625000X0.350000X-0.625000X-0.350000X0.625000X-0.350000X0.625000X0.350000X0*%
%ADD27RoundRect,0.250001X-0.799999X0.799999X-0.799999X-0.799999X0.799999X-0.799999X0.799999X0.799999X0*%
%ADD28FreePoly0,270.000000*%
%ADD29FreePoly1,270.000000*%
%ADD30FreePoly0,90.000000*%
%ADD31FreePoly1,90.000000*%
G04 APERTURE END LIST*
D10*
G04 #@! TO.C,J5*
X4540000Y-77000000D03*
D11*
X2000000Y-79540000D03*
X7080000Y-79540000D03*
X2000000Y-74460000D03*
X7080000Y-74460000D03*
G04 #@! TD*
D12*
G04 #@! TO.C,H4*
X5000000Y-25000000D03*
G04 #@! TD*
D13*
G04 #@! TO.C,J2*
X97000000Y-69400000D03*
X94400000Y-67000000D03*
D14*
X97000000Y-67000000D03*
D13*
X99400000Y-67000000D03*
X97000000Y-64600000D03*
G04 #@! TD*
G04 #@! TO.C,J1*
X57000000Y-131400000D03*
X54400000Y-129000000D03*
D14*
X57000000Y-129000000D03*
D13*
X59400000Y-129000000D03*
X57000000Y-126600000D03*
G04 #@! TD*
D15*
G04 #@! TO.C,RV1*
X5000000Y-42040000D03*
X7540000Y-39500000D03*
X5000000Y-36960000D03*
G04 #@! TD*
D12*
G04 #@! TO.C,H1*
X97000000Y-117000000D03*
G04 #@! TD*
D13*
G04 #@! TO.C,REF\u002A\u002A*
X79500000Y-99200000D03*
G04 #@! TD*
G04 #@! TO.C,REF\u002A\u002A*
X25500000Y-124200000D03*
G04 #@! TD*
G04 #@! TO.C,REF\u002A\u002A*
X52200000Y-155500000D03*
G04 #@! TD*
G04 #@! TO.C,J2*
X5000000Y-52600000D03*
X7600000Y-55000000D03*
D14*
X5000000Y-55000000D03*
D13*
X2600000Y-55000000D03*
X5000000Y-57400000D03*
G04 #@! TD*
D12*
G04 #@! TO.C,H3*
X45000000Y-149000000D03*
G04 #@! TD*
D13*
G04 #@! TO.C,REF\u002A\u002A*
X74500000Y-121800000D03*
G04 #@! TD*
G04 #@! TO.C,REF\u002A\u002A*
X78500000Y-121800000D03*
G04 #@! TD*
G04 #@! TO.C,REF\u002A\u002A*
X25500000Y-22800000D03*
G04 #@! TD*
G04 #@! TO.C,REF\u002A\u002A*
X49800000Y-90500000D03*
G04 #@! TD*
D16*
G04 #@! TO.C,J4*
X90600000Y-57600001D03*
D17*
X90600000Y-53000001D03*
G04 #@! TD*
D13*
G04 #@! TO.C,REF\u002A\u002A*
X76500000Y-121800000D03*
G04 #@! TD*
G04 #@! TO.C,REF\u002A\u002A*
X22500000Y-62200000D03*
G04 #@! TD*
D12*
G04 #@! TO.C,H3*
X57000000Y-159000000D03*
G04 #@! TD*
D13*
G04 #@! TO.C,REF\u002A\u002A*
X75500000Y-161200000D03*
G04 #@! TD*
G04 #@! TO.C,REF\u002A\u002A*
X75500000Y-59800000D03*
G04 #@! TD*
D12*
G04 #@! TO.C,H3*
X57000000Y-97000000D03*
G04 #@! TD*
G04 #@! TO.C,H1*
X97000000Y-179000000D03*
G04 #@! TD*
D13*
G04 #@! TO.C,REF\u002A\u002A*
X74500000Y-59800000D03*
G04 #@! TD*
G04 #@! TO.C,REF\u002A\u002A*
X52200000Y-89500000D03*
G04 #@! TD*
D12*
G04 #@! TO.C,H4*
X5000000Y-87000000D03*
G04 #@! TD*
D13*
G04 #@! TO.C,REF\u002A\u002A*
X49800000Y-89500000D03*
G04 #@! TD*
D18*
G04 #@! TO.C,J3*
X27540000Y-126025000D03*
D19*
X25000000Y-126025000D03*
X22460000Y-126025000D03*
G04 #@! TD*
D12*
G04 #@! TO.C,H1*
X97000000Y-55000000D03*
G04 #@! TD*
D13*
G04 #@! TO.C,REF\u002A\u002A*
X49800000Y-154500000D03*
G04 #@! TD*
G04 #@! TO.C,REF\u002A\u002A*
X52200000Y-92500000D03*
G04 #@! TD*
D18*
G04 #@! TO.C,J3*
X74460000Y-119975000D03*
D19*
X77000000Y-119975000D03*
X79540000Y-119975000D03*
G04 #@! TD*
D13*
G04 #@! TO.C,REF\u002A\u002A*
X77500000Y-99200000D03*
G04 #@! TD*
D12*
G04 #@! TO.C,H3*
X45000000Y-87000000D03*
G04 #@! TD*
D13*
G04 #@! TO.C,REF\u002A\u002A*
X76500000Y-59800000D03*
G04 #@! TD*
D15*
G04 #@! TO.C,RV1*
X97000000Y-79960000D03*
X94460000Y-82500000D03*
X97000000Y-85040000D03*
G04 #@! TD*
D13*
G04 #@! TO.C,REF\u002A\u002A*
X27500000Y-124200000D03*
G04 #@! TD*
G04 #@! TO.C,REF\u002A\u002A*
X76500000Y-99200000D03*
G04 #@! TD*
D20*
G04 #@! TO.C,J5*
X97460000Y-45000000D03*
D11*
X100000000Y-42460000D03*
X94920000Y-42460000D03*
X100000000Y-47540000D03*
X94920000Y-47540000D03*
G04 #@! TD*
D13*
G04 #@! TO.C,REF\u002A\u002A*
X24500000Y-124200000D03*
G04 #@! TD*
G04 #@! TO.C,J2*
X97000000Y-7400000D03*
X94400000Y-5000000D03*
D14*
X97000000Y-5000000D03*
D13*
X99400000Y-5000000D03*
X97000000Y-2600000D03*
G04 #@! TD*
G04 #@! TO.C,REF\u002A\u002A*
X52200000Y-94500000D03*
G04 #@! TD*
D12*
G04 #@! TO.C,H3*
X57000000Y-35000000D03*
G04 #@! TD*
D21*
G04 #@! TO.C,J6*
X83700000Y-57500000D03*
D22*
X83700000Y-55500000D03*
G04 #@! TD*
D13*
G04 #@! TO.C,REF\u002A\u002A*
X26500000Y-84800000D03*
G04 #@! TD*
D23*
G04 #@! TO.C,J7*
X69000000Y-181000000D03*
D24*
X67000000Y-181000000D03*
X65000000Y-181000000D03*
G04 #@! TD*
D13*
G04 #@! TO.C,REF\u002A\u002A*
X27500000Y-62200000D03*
G04 #@! TD*
G04 #@! TO.C,REF\u002A\u002A*
X52200000Y-31500000D03*
G04 #@! TD*
G04 #@! TO.C,J1*
X57000000Y-69400000D03*
X54400000Y-67000000D03*
D14*
X57000000Y-67000000D03*
D13*
X59400000Y-67000000D03*
X57000000Y-64600000D03*
G04 #@! TD*
D12*
G04 #@! TO.C,H4*
X97000000Y-159000000D03*
G04 #@! TD*
G04 #@! TO.C,H4*
X5000000Y-149000000D03*
G04 #@! TD*
D13*
G04 #@! TO.C,REF\u002A\u002A*
X49800000Y-92500000D03*
G04 #@! TD*
G04 #@! TO.C,REF\u002A\u002A*
X77500000Y-121800000D03*
G04 #@! TD*
G04 #@! TO.C,REF\u002A\u002A*
X49800000Y-93500000D03*
G04 #@! TD*
D21*
G04 #@! TO.C,J6*
X83700000Y-181500000D03*
D22*
X83700000Y-179500000D03*
G04 #@! TD*
D13*
G04 #@! TO.C,REF\u002A\u002A*
X74500000Y-99200000D03*
G04 #@! TD*
G04 #@! TO.C,REF\u002A\u002A*
X52200000Y-29500000D03*
G04 #@! TD*
G04 #@! TO.C,REF\u002A\u002A*
X23500000Y-124200000D03*
G04 #@! TD*
D23*
G04 #@! TO.C,J7*
X69000000Y-57000000D03*
D24*
X67000000Y-57000000D03*
X65000000Y-57000000D03*
G04 #@! TD*
D12*
G04 #@! TO.C,H2*
X45000000Y-129000000D03*
G04 #@! TD*
D13*
G04 #@! TO.C,REF\u002A\u002A*
X49800000Y-31500000D03*
G04 #@! TD*
G04 #@! TO.C,J2*
X5000000Y-114600000D03*
X7600000Y-117000000D03*
D14*
X5000000Y-117000000D03*
D13*
X2600000Y-117000000D03*
X5000000Y-119400000D03*
G04 #@! TD*
G04 #@! TO.C,REF\u002A\u002A*
X52200000Y-90500000D03*
G04 #@! TD*
G04 #@! TO.C,REF\u002A\u002A*
X52200000Y-91500000D03*
G04 #@! TD*
D12*
G04 #@! TO.C,H1*
X5000000Y-5000000D03*
G04 #@! TD*
G04 #@! TO.C,H2*
X45000000Y-5000000D03*
G04 #@! TD*
D18*
G04 #@! TO.C,J3*
X27540000Y-2025000D03*
D19*
X25000000Y-2025000D03*
X22460000Y-2025000D03*
G04 #@! TD*
D13*
G04 #@! TO.C,REF\u002A\u002A*
X49800000Y-30500000D03*
G04 #@! TD*
G04 #@! TO.C,J1*
X45000000Y-114600000D03*
X47600000Y-117000000D03*
D14*
X45000000Y-117000000D03*
D13*
X42600000Y-117000000D03*
X45000000Y-119400000D03*
G04 #@! TD*
D21*
G04 #@! TO.C,J6*
X83700000Y-119500000D03*
D22*
X83700000Y-117500000D03*
G04 #@! TD*
D16*
G04 #@! TO.C,J4*
X90600000Y-119600001D03*
D17*
X90600000Y-115000001D03*
G04 #@! TD*
D13*
G04 #@! TO.C,REF\u002A\u002A*
X26500000Y-124200000D03*
G04 #@! TD*
G04 #@! TO.C,J1*
X57000000Y-7400000D03*
X54400000Y-5000000D03*
D14*
X57000000Y-5000000D03*
D13*
X59400000Y-5000000D03*
X57000000Y-2600000D03*
G04 #@! TD*
D12*
G04 #@! TO.C,H2*
X57000000Y-179000000D03*
G04 #@! TD*
D13*
G04 #@! TO.C,REF\u002A\u002A*
X78500000Y-59800000D03*
G04 #@! TD*
D25*
G04 #@! TO.C,J7*
X33000000Y-65000000D03*
D24*
X35000000Y-65000000D03*
X37000000Y-65000000D03*
G04 #@! TD*
D13*
G04 #@! TO.C,REF\u002A\u002A*
X52200000Y-27500000D03*
G04 #@! TD*
G04 #@! TO.C,REF\u002A\u002A*
X49800000Y-32500000D03*
G04 #@! TD*
D12*
G04 #@! TO.C,H2*
X57000000Y-117000000D03*
G04 #@! TD*
D13*
G04 #@! TO.C,REF\u002A\u002A*
X52200000Y-32500000D03*
G04 #@! TD*
G04 #@! TO.C,REF\u002A\u002A*
X25500000Y-84800000D03*
G04 #@! TD*
G04 #@! TO.C,REF\u002A\u002A*
X52200000Y-154500000D03*
G04 #@! TD*
D12*
G04 #@! TO.C,H1*
X5000000Y-67000000D03*
G04 #@! TD*
D13*
G04 #@! TO.C,REF\u002A\u002A*
X49800000Y-151500000D03*
G04 #@! TD*
G04 #@! TO.C,REF\u002A\u002A*
X25500000Y-62200000D03*
G04 #@! TD*
D26*
G04 #@! TO.C,J6*
X18300000Y-64500000D03*
D22*
X18300000Y-66500000D03*
G04 #@! TD*
D12*
G04 #@! TO.C,H4*
X97000000Y-35000000D03*
G04 #@! TD*
D27*
G04 #@! TO.C,J4*
X11400000Y-126399999D03*
D17*
X11400000Y-130999999D03*
G04 #@! TD*
D13*
G04 #@! TO.C,REF\u002A\u002A*
X49800000Y-156500000D03*
G04 #@! TD*
D18*
G04 #@! TO.C,J3*
X74460000Y-181975000D03*
D19*
X77000000Y-181975000D03*
X79540000Y-181975000D03*
G04 #@! TD*
D13*
G04 #@! TO.C,REF\u002A\u002A*
X49800000Y-94500000D03*
G04 #@! TD*
G04 #@! TO.C,J2*
X97000000Y-131400000D03*
X94400000Y-129000000D03*
D14*
X97000000Y-129000000D03*
D13*
X99400000Y-129000000D03*
X97000000Y-126600000D03*
G04 #@! TD*
G04 #@! TO.C,REF\u002A\u002A*
X52200000Y-30500000D03*
G04 #@! TD*
G04 #@! TO.C,REF\u002A\u002A*
X22500000Y-22800000D03*
G04 #@! TD*
G04 #@! TO.C,REF\u002A\u002A*
X79500000Y-161200000D03*
G04 #@! TD*
D25*
G04 #@! TO.C,J7*
X33000000Y-3000000D03*
D24*
X35000000Y-3000000D03*
X37000000Y-3000000D03*
G04 #@! TD*
D13*
G04 #@! TO.C,REF\u002A\u002A*
X23500000Y-22800000D03*
G04 #@! TD*
G04 #@! TO.C,REF\u002A\u002A*
X49800000Y-153500000D03*
G04 #@! TD*
G04 #@! TO.C,REF\u002A\u002A*
X76500000Y-161200000D03*
G04 #@! TD*
D12*
G04 #@! TO.C,H2*
X45000000Y-67000000D03*
G04 #@! TD*
D13*
G04 #@! TO.C,REF\u002A\u002A*
X75500000Y-99200000D03*
G04 #@! TD*
G04 #@! TO.C,REF\u002A\u002A*
X75500000Y-121800000D03*
G04 #@! TD*
D15*
G04 #@! TO.C,RV1*
X97000000Y-141960000D03*
X94460000Y-144500000D03*
X97000000Y-147040000D03*
G04 #@! TD*
D13*
G04 #@! TO.C,REF\u002A\u002A*
X78500000Y-161200000D03*
G04 #@! TD*
D26*
G04 #@! TO.C,J6*
X18300000Y-126500000D03*
D22*
X18300000Y-128500000D03*
G04 #@! TD*
D13*
G04 #@! TO.C,REF\u002A\u002A*
X77500000Y-59800000D03*
G04 #@! TD*
G04 #@! TO.C,REF\u002A\u002A*
X24500000Y-62200000D03*
G04 #@! TD*
G04 #@! TO.C,REF\u002A\u002A*
X77500000Y-161200000D03*
G04 #@! TD*
G04 #@! TO.C,REF\u002A\u002A*
X52200000Y-152500000D03*
G04 #@! TD*
G04 #@! TO.C,REF\u002A\u002A*
X79500000Y-121800000D03*
G04 #@! TD*
D18*
G04 #@! TO.C,J3*
X74460000Y-57975000D03*
D19*
X77000000Y-57975000D03*
X79540000Y-57975000D03*
G04 #@! TD*
D13*
G04 #@! TO.C,J2*
X5000000Y-176600000D03*
X7600000Y-179000000D03*
D14*
X5000000Y-179000000D03*
D13*
X2600000Y-179000000D03*
X5000000Y-181400000D03*
G04 #@! TD*
G04 #@! TO.C,REF\u002A\u002A*
X78500000Y-99200000D03*
G04 #@! TD*
D20*
G04 #@! TO.C,J5*
X97460000Y-107000000D03*
D11*
X100000000Y-104460000D03*
X94920000Y-104460000D03*
X100000000Y-109540000D03*
X94920000Y-109540000D03*
G04 #@! TD*
D10*
G04 #@! TO.C,J5*
X4540000Y-15000000D03*
D11*
X2000000Y-17540000D03*
X7080000Y-17540000D03*
X2000000Y-12460000D03*
X7080000Y-12460000D03*
G04 #@! TD*
D10*
G04 #@! TO.C,J5*
X4540000Y-139000000D03*
D11*
X2000000Y-141540000D03*
X7080000Y-141540000D03*
X2000000Y-136460000D03*
X7080000Y-136460000D03*
G04 #@! TD*
D12*
G04 #@! TO.C,H4*
X97000000Y-97000000D03*
G04 #@! TD*
D13*
G04 #@! TO.C,REF\u002A\u002A*
X49800000Y-28500000D03*
G04 #@! TD*
D18*
G04 #@! TO.C,J3*
X27540000Y-64025000D03*
D19*
X25000000Y-64025000D03*
X22460000Y-64025000D03*
G04 #@! TD*
D12*
G04 #@! TO.C,H1*
X5000000Y-129000000D03*
G04 #@! TD*
D13*
G04 #@! TO.C,REF\u002A\u002A*
X79500000Y-59800000D03*
G04 #@! TD*
D12*
G04 #@! TO.C,H2*
X57000000Y-55000000D03*
G04 #@! TD*
D13*
G04 #@! TO.C,REF\u002A\u002A*
X52200000Y-93500000D03*
G04 #@! TD*
G04 #@! TO.C,J1*
X45000000Y-52600000D03*
X47600000Y-55000000D03*
D14*
X45000000Y-55000000D03*
D13*
X42600000Y-55000000D03*
X45000000Y-57400000D03*
G04 #@! TD*
G04 #@! TO.C,REF\u002A\u002A*
X24500000Y-22800000D03*
G04 #@! TD*
G04 #@! TO.C,REF\u002A\u002A*
X49800000Y-27500000D03*
G04 #@! TD*
D15*
G04 #@! TO.C,RV1*
X97000000Y-17960000D03*
X94460000Y-20500000D03*
X97000000Y-23040000D03*
G04 #@! TD*
D25*
G04 #@! TO.C,J7*
X33000000Y-127000000D03*
D24*
X35000000Y-127000000D03*
X37000000Y-127000000D03*
G04 #@! TD*
D13*
G04 #@! TO.C,REF\u002A\u002A*
X52200000Y-153500000D03*
G04 #@! TD*
G04 #@! TO.C,REF\u002A\u002A*
X52200000Y-151500000D03*
G04 #@! TD*
G04 #@! TO.C,REF\u002A\u002A*
X26500000Y-62200000D03*
G04 #@! TD*
G04 #@! TO.C,REF\u002A\u002A*
X24500000Y-84800000D03*
G04 #@! TD*
G04 #@! TO.C,REF\u002A\u002A*
X26500000Y-22800000D03*
G04 #@! TD*
G04 #@! TO.C,REF\u002A\u002A*
X22500000Y-124200000D03*
G04 #@! TD*
G04 #@! TO.C,REF\u002A\u002A*
X23500000Y-84800000D03*
G04 #@! TD*
G04 #@! TO.C,REF\u002A\u002A*
X52200000Y-28500000D03*
G04 #@! TD*
G04 #@! TO.C,REF\u002A\u002A*
X49800000Y-152500000D03*
G04 #@! TD*
D15*
G04 #@! TO.C,RV1*
X5000000Y-104040000D03*
X7540000Y-101500000D03*
X5000000Y-98960000D03*
G04 #@! TD*
D13*
G04 #@! TO.C,J1*
X45000000Y-176600000D03*
X47600000Y-179000000D03*
D14*
X45000000Y-179000000D03*
D13*
X42600000Y-179000000D03*
X45000000Y-181400000D03*
G04 #@! TD*
G04 #@! TO.C,REF\u002A\u002A*
X49800000Y-155500000D03*
G04 #@! TD*
D27*
G04 #@! TO.C,J4*
X11400000Y-2399999D03*
D17*
X11400000Y-6999999D03*
G04 #@! TD*
D13*
G04 #@! TO.C,REF\u002A\u002A*
X27500000Y-84800000D03*
G04 #@! TD*
D26*
G04 #@! TO.C,J6*
X18300000Y-2500000D03*
D22*
X18300000Y-4500000D03*
G04 #@! TD*
D15*
G04 #@! TO.C,RV1*
X5000000Y-166040000D03*
X7540000Y-163500000D03*
X5000000Y-160960000D03*
G04 #@! TD*
D12*
G04 #@! TO.C,H3*
X45000000Y-25000000D03*
G04 #@! TD*
D20*
G04 #@! TO.C,J5*
X97460000Y-169000000D03*
D11*
X100000000Y-166460000D03*
X94920000Y-166460000D03*
X100000000Y-171540000D03*
X94920000Y-171540000D03*
G04 #@! TD*
D27*
G04 #@! TO.C,J4*
X11400000Y-64399999D03*
D17*
X11400000Y-68999999D03*
G04 #@! TD*
D13*
G04 #@! TO.C,REF\u002A\u002A*
X49800000Y-91500000D03*
G04 #@! TD*
G04 #@! TO.C,REF\u002A\u002A*
X27500000Y-22800000D03*
G04 #@! TD*
G04 #@! TO.C,REF\u002A\u002A*
X49800000Y-29500000D03*
G04 #@! TD*
D23*
G04 #@! TO.C,J7*
X69000000Y-119000000D03*
D24*
X67000000Y-119000000D03*
X65000000Y-119000000D03*
G04 #@! TD*
D13*
G04 #@! TO.C,REF\u002A\u002A*
X23500000Y-62200000D03*
G04 #@! TD*
G04 #@! TO.C,REF\u002A\u002A*
X22500000Y-84800000D03*
G04 #@! TD*
D16*
G04 #@! TO.C,J4*
X90600000Y-181600001D03*
D17*
X90600000Y-177000001D03*
G04 #@! TD*
D13*
G04 #@! TO.C,REF\u002A\u002A*
X74500000Y-161200000D03*
G04 #@! TD*
G04 #@! TO.C,REF\u002A\u002A*
X52200000Y-156500000D03*
G04 #@! TD*
D28*
G04 #@! TO.C,JP4*
X6000000Y-156240000D03*
D29*
X6000000Y-157540000D03*
G04 #@! TD*
D30*
G04 #@! TO.C,JP4*
X96000000Y-27760000D03*
D31*
X96000000Y-26460000D03*
G04 #@! TD*
D28*
G04 #@! TO.C,JP3*
X99500000Y-26660000D03*
D29*
X99500000Y-27960000D03*
G04 #@! TD*
D30*
G04 #@! TO.C,JP4*
X96000000Y-89760000D03*
D31*
X96000000Y-88460000D03*
G04 #@! TD*
D28*
G04 #@! TO.C,JP4*
X6000000Y-94240000D03*
D29*
X6000000Y-95540000D03*
G04 #@! TD*
D28*
G04 #@! TO.C,JP3*
X99500000Y-88660000D03*
D29*
X99500000Y-89960000D03*
G04 #@! TD*
D28*
G04 #@! TO.C,JP3*
X99500000Y-150660000D03*
D29*
X99500000Y-151960000D03*
G04 #@! TD*
D28*
G04 #@! TO.C,JP4*
X6000000Y-32240000D03*
D29*
X6000000Y-33540000D03*
G04 #@! TD*
D30*
G04 #@! TO.C,JP3*
X2500000Y-95340000D03*
D31*
X2500000Y-94040000D03*
G04 #@! TD*
D30*
G04 #@! TO.C,JP3*
X2500000Y-33340000D03*
D31*
X2500000Y-32040000D03*
G04 #@! TD*
D30*
G04 #@! TO.C,JP4*
X96000000Y-151760000D03*
D31*
X96000000Y-150460000D03*
G04 #@! TD*
D30*
G04 #@! TO.C,JP3*
X2500000Y-157340000D03*
D31*
X2500000Y-156040000D03*
G04 #@! TD*
M02*
