G04 #@! TF.GenerationSoftware,KiCad,Pcbnew,7.0.5-7.0.5~ubuntu22.04.1*
G04 #@! TF.CreationDate,2023-06-19T14:44:07+01:00*
G04 #@! TF.ProjectId,panel,70616e65-6c2e-46b6-9963-61645f706362,v01*
G04 #@! TF.SameCoordinates,Original*
G04 #@! TF.FileFunction,Other,Comment*
%FSLAX46Y46*%
G04 Gerber Fmt 4.6, Leading zero omitted, Abs format (unit mm)*
G04 Created by KiCad (PCBNEW 7.0.5-7.0.5~ubuntu22.04.1) date 2023-06-19 14:44:07*
%MOMM*%
%LPD*%
G01*
G04 APERTURE LIST*
%ADD10C,0.150000*%
G04 APERTURE END LIST*
D10*
G04 #@! TO.C,H4*
X8200000Y-25000000D02*
G75*
G03*
X8200000Y-25000000I-3200000J0D01*
G01*
G04 #@! TO.C,H1*
X100200000Y-117000000D02*
G75*
G03*
X100200000Y-117000000I-3200000J0D01*
G01*
G04 #@! TO.C,H3*
X48200000Y-149000000D02*
G75*
G03*
X48200000Y-149000000I-3200000J0D01*
G01*
X60200000Y-159000000D02*
G75*
G03*
X60200000Y-159000000I-3200000J0D01*
G01*
X60200000Y-97000000D02*
G75*
G03*
X60200000Y-97000000I-3200000J0D01*
G01*
G04 #@! TO.C,H1*
X100200000Y-179000000D02*
G75*
G03*
X100200000Y-179000000I-3200000J0D01*
G01*
G04 #@! TO.C,H4*
X8200000Y-87000000D02*
G75*
G03*
X8200000Y-87000000I-3200000J0D01*
G01*
G04 #@! TO.C,H1*
X100200000Y-55000000D02*
G75*
G03*
X100200000Y-55000000I-3200000J0D01*
G01*
G04 #@! TO.C,H3*
X48200000Y-87000000D02*
G75*
G03*
X48200000Y-87000000I-3200000J0D01*
G01*
X60200000Y-35000000D02*
G75*
G03*
X60200000Y-35000000I-3200000J0D01*
G01*
G04 #@! TO.C,H4*
X100200000Y-159000000D02*
G75*
G03*
X100200000Y-159000000I-3200000J0D01*
G01*
X8200000Y-149000000D02*
G75*
G03*
X8200000Y-149000000I-3200000J0D01*
G01*
G04 #@! TO.C,H2*
X48200000Y-129000000D02*
G75*
G03*
X48200000Y-129000000I-3200000J0D01*
G01*
G04 #@! TO.C,H1*
X8200000Y-5000000D02*
G75*
G03*
X8200000Y-5000000I-3200000J0D01*
G01*
G04 #@! TO.C,H2*
X48200000Y-5000000D02*
G75*
G03*
X48200000Y-5000000I-3200000J0D01*
G01*
X60200000Y-179000000D02*
G75*
G03*
X60200000Y-179000000I-3200000J0D01*
G01*
X60200000Y-117000000D02*
G75*
G03*
X60200000Y-117000000I-3200000J0D01*
G01*
G04 #@! TO.C,H1*
X8200000Y-67000000D02*
G75*
G03*
X8200000Y-67000000I-3200000J0D01*
G01*
G04 #@! TO.C,H4*
X100200000Y-35000000D02*
G75*
G03*
X100200000Y-35000000I-3200000J0D01*
G01*
G04 #@! TO.C,H2*
X48200000Y-67000000D02*
G75*
G03*
X48200000Y-67000000I-3200000J0D01*
G01*
G04 #@! TO.C,H4*
X100200000Y-97000000D02*
G75*
G03*
X100200000Y-97000000I-3200000J0D01*
G01*
G04 #@! TO.C,H1*
X8200000Y-129000000D02*
G75*
G03*
X8200000Y-129000000I-3200000J0D01*
G01*
G04 #@! TO.C,H2*
X60200000Y-55000000D02*
G75*
G03*
X60200000Y-55000000I-3200000J0D01*
G01*
G04 #@! TO.C,H3*
X48200000Y-25000000D02*
G75*
G03*
X48200000Y-25000000I-3200000J0D01*
G01*
G04 #@! TD*
M02*
