M48
; DRILL file {KiCad 7.0.5-7.0.5~ubuntu22.04.1} date Mon Jun 19 14:44:07 2023
; FORMAT={-:-/ absolute / metric / decimal}
; #@! TF.CreationDate,2023-06-19T14:44:07+01:00
; #@! TF.GenerationSoftware,Kicad,Pcbnew,7.0.5-7.0.5~ubuntu22.04.1
; #@! TF.FileFunction,MixedPlating,1,2
FMAT,2
METRIC
; #@! TA.AperFunction,Plated,PTH,ViaDrill
T1C0.300
; #@! TA.AperFunction,Plated,PTH,ComponentDrill
T2C0.300
; #@! TA.AperFunction,Plated,PTH,ViaDrill
T3C0.400
; #@! TA.AperFunction,Plated,PTH,ComponentDrill
T4C0.750
; #@! TA.AperFunction,Plated,PTH,ComponentDrill
T5C0.800
; #@! TA.AperFunction,Plated,PTH,ComponentDrill
T6C1.000
; #@! TA.AperFunction,Plated,PTH,ComponentDrill
T7C1.100
; #@! TA.AperFunction,Plated,PTH,ComponentDrill
T8C1.500
; #@! TA.AperFunction,Plated,PTH,ComponentDrill
T9C1.700
; #@! TA.AperFunction,Plated,PTH,ComponentDrill
T10C2.900
; #@! TA.AperFunction,NonPlated,NPTH,ComponentDrill
T11C0.500
; #@! TA.AperFunction,NonPlated,NPTH,ComponentDrill
T12C3.200
%
G90
G05
T1
X1.75Y-34.25
X1.75Y-96.25
X1.75Y-158.25
X2.5Y-30.75
X2.5Y-92.75
X2.5Y-154.75
X6.0Y-31.0
X6.0Y-34.5
X6.0Y-93.0
X6.0Y-96.5
X6.0Y-155.0
X6.0Y-158.5
X21.75Y-13.5
X21.75Y-75.5
X21.75Y-137.5
X23.25Y-13.75
X23.25Y-75.75
X23.25Y-137.75
X78.75Y-46.25
X78.75Y-108.25
X78.75Y-170.25
X80.25Y-46.5
X80.25Y-108.5
X80.25Y-170.5
X96.0Y-25.5
X96.0Y-29.0
X96.0Y-87.5
X96.0Y-91.0
X96.0Y-149.5
X96.0Y-153.0
X99.5Y-29.25
X99.5Y-91.25
X99.5Y-153.25
X100.25Y-25.75
X100.25Y-87.75
X100.25Y-149.75
T2
X2.6Y-55.0
X2.6Y-117.0
X2.6Y-179.0
X5.0Y-52.6
X5.0Y-57.4
X5.0Y-114.6
X5.0Y-119.4
X5.0Y-176.6
X5.0Y-181.4
X7.6Y-55.0
X7.6Y-117.0
X7.6Y-179.0
X42.6Y-55.0
X42.6Y-117.0
X42.6Y-179.0
X45.0Y-52.6
X45.0Y-57.4
X45.0Y-114.6
X45.0Y-119.4
X45.0Y-176.6
X45.0Y-181.4
X47.6Y-55.0
X47.6Y-117.0
X47.6Y-179.0
X54.4Y-5.0
X54.4Y-67.0
X54.4Y-129.0
X57.0Y-2.6
X57.0Y-7.4
X57.0Y-64.6
X57.0Y-69.4
X57.0Y-126.6
X57.0Y-131.4
X59.4Y-5.0
X59.4Y-67.0
X59.4Y-129.0
X94.4Y-5.0
X94.4Y-67.0
X94.4Y-129.0
X97.0Y-2.6
X97.0Y-7.4
X97.0Y-64.6
X97.0Y-69.4
X97.0Y-126.6
X97.0Y-131.4
X99.4Y-5.0
X99.4Y-67.0
X99.4Y-129.0
T3
X9.75Y-21.0
X9.75Y-83.0
X9.75Y-145.0
X13.0Y-21.25
X13.0Y-83.25
X13.0Y-145.25
X20.75Y-20.0
X20.75Y-82.0
X20.75Y-144.0
X21.5Y-9.25
X21.5Y-71.25
X21.5Y-133.25
X22.5Y-21.0
X22.5Y-83.0
X22.5Y-145.0
X24.0Y-12.0
X24.0Y-74.0
X24.0Y-136.0
X25.75Y-13.0
X25.75Y-75.0
X25.75Y-137.0
X29.5Y-5.5
X29.5Y-67.5
X29.5Y-129.5
X29.75Y-13.5
X29.75Y-75.5
X29.75Y-137.5
X72.25Y-46.5
X72.25Y-108.5
X72.25Y-170.5
X72.5Y-54.5
X72.5Y-116.5
X72.5Y-178.5
X76.25Y-47.0
X76.25Y-109.0
X76.25Y-171.0
X78.0Y-48.0
X78.0Y-110.0
X78.0Y-172.0
X79.5Y-39.0
X79.5Y-101.0
X79.5Y-163.0
X80.5Y-50.75
X80.5Y-112.75
X80.5Y-174.75
X81.25Y-40.0
X81.25Y-102.0
X81.25Y-164.0
X89.0Y-38.75
X89.0Y-100.75
X89.0Y-162.75
X92.25Y-39.0
X92.25Y-101.0
X92.25Y-163.0
T4
X18.3Y-2.5
X18.3Y-4.5
X18.3Y-64.5
X18.3Y-66.5
X18.3Y-126.5
X18.3Y-128.5
X33.0Y-3.0
X33.0Y-65.0
X33.0Y-127.0
X35.0Y-3.0
X35.0Y-65.0
X35.0Y-127.0
X37.0Y-3.0
X37.0Y-65.0
X37.0Y-127.0
X65.0Y-57.0
X65.0Y-119.0
X65.0Y-181.0
X67.0Y-57.0
X67.0Y-119.0
X67.0Y-181.0
X69.0Y-57.0
X69.0Y-119.0
X69.0Y-181.0
X83.7Y-55.5
X83.7Y-57.5
X83.7Y-117.5
X83.7Y-119.5
X83.7Y-179.5
X83.7Y-181.5
T5
X5.0Y-36.96
X5.0Y-42.04
X5.0Y-98.96
X5.0Y-104.04
X5.0Y-160.96
X5.0Y-166.04
X7.54Y-39.5
X7.54Y-101.5
X7.54Y-163.5
X94.46Y-20.5
X94.46Y-82.5
X94.46Y-144.5
X97.0Y-17.96
X97.0Y-23.04
X97.0Y-79.96
X97.0Y-85.04
X97.0Y-141.96
X97.0Y-147.04
T6
X22.46Y-2.025
X22.46Y-64.025
X22.46Y-126.025
X25.0Y-2.025
X25.0Y-64.025
X25.0Y-126.025
X27.54Y-2.025
X27.54Y-64.025
X27.54Y-126.025
X74.46Y-57.975
X74.46Y-119.975
X74.46Y-181.975
X77.0Y-57.975
X77.0Y-119.975
X77.0Y-181.975
X79.54Y-57.975
X79.54Y-119.975
X79.54Y-181.975
T7
X11.4Y-2.4
X11.4Y-7.0
X11.4Y-64.4
X11.4Y-69.0
X11.4Y-126.4
X11.4Y-131.0
X90.6Y-53.0
X90.6Y-57.6
X90.6Y-115.0
X90.6Y-119.6
X90.6Y-177.0
X90.6Y-181.6
T8
X4.54Y-15.0
X4.54Y-77.0
X4.54Y-139.0
X97.46Y-45.0
X97.46Y-107.0
X97.46Y-169.0
T9
X2.0Y-12.46
X2.0Y-17.54
X2.0Y-74.46
X2.0Y-79.54
X2.0Y-136.46
X2.0Y-141.54
X7.08Y-12.46
X7.08Y-17.54
X7.08Y-74.46
X7.08Y-79.54
X7.08Y-136.46
X7.08Y-141.54
X94.92Y-42.46
X94.92Y-47.54
X94.92Y-104.46
X94.92Y-109.54
X94.92Y-166.46
X94.92Y-171.54
X100.0Y-42.46
X100.0Y-47.54
X100.0Y-104.46
X100.0Y-109.54
X100.0Y-166.46
X100.0Y-171.54
T10
X5.0Y-55.0
X5.0Y-117.0
X5.0Y-179.0
X45.0Y-55.0
X45.0Y-117.0
X45.0Y-179.0
X57.0Y-5.0
X57.0Y-67.0
X57.0Y-129.0
X97.0Y-5.0
X97.0Y-67.0
X97.0Y-129.0
T11
X22.5Y-22.8
X22.5Y-62.2
X22.5Y-84.8
X22.5Y-124.2
X23.5Y-22.8
X23.5Y-62.2
X23.5Y-84.8
X23.5Y-124.2
X24.5Y-22.8
X24.5Y-62.2
X24.5Y-84.8
X24.5Y-124.2
X25.5Y-22.8
X25.5Y-62.2
X25.5Y-84.8
X25.5Y-124.2
X26.5Y-22.8
X26.5Y-62.2
X26.5Y-84.8
X26.5Y-124.2
X27.5Y-22.8
X27.5Y-62.2
X27.5Y-84.8
X27.5Y-124.2
X49.8Y-27.5
X49.8Y-28.5
X49.8Y-29.5
X49.8Y-30.5
X49.8Y-31.5
X49.8Y-32.5
X49.8Y-89.5
X49.8Y-90.5
X49.8Y-91.5
X49.8Y-92.5
X49.8Y-93.5
X49.8Y-94.5
X49.8Y-151.5
X49.8Y-152.5
X49.8Y-153.5
X49.8Y-154.5
X49.8Y-155.5
X49.8Y-156.5
X52.2Y-27.5
X52.2Y-28.5
X52.2Y-29.5
X52.2Y-30.5
X52.2Y-31.5
X52.2Y-32.5
X52.2Y-89.5
X52.2Y-90.5
X52.2Y-91.5
X52.2Y-92.5
X52.2Y-93.5
X52.2Y-94.5
X52.2Y-151.5
X52.2Y-152.5
X52.2Y-153.5
X52.2Y-154.5
X52.2Y-155.5
X52.2Y-156.5
X74.5Y-59.8
X74.5Y-99.2
X74.5Y-121.8
X74.5Y-161.2
X75.5Y-59.8
X75.5Y-99.2
X75.5Y-121.8
X75.5Y-161.2
X76.5Y-59.8
X76.5Y-99.2
X76.5Y-121.8
X76.5Y-161.2
X77.5Y-59.8
X77.5Y-99.2
X77.5Y-121.8
X77.5Y-161.2
X78.5Y-59.8
X78.5Y-99.2
X78.5Y-121.8
X78.5Y-161.2
X79.5Y-59.8
X79.5Y-99.2
X79.5Y-121.8
X79.5Y-161.2
T12
X5.0Y-5.0
X5.0Y-25.0
X5.0Y-67.0
X5.0Y-87.0
X5.0Y-129.0
X5.0Y-149.0
X45.0Y-5.0
X45.0Y-25.0
X45.0Y-67.0
X45.0Y-87.0
X45.0Y-129.0
X45.0Y-149.0
X57.0Y-35.0
X57.0Y-55.0
X57.0Y-97.0
X57.0Y-117.0
X57.0Y-159.0
X57.0Y-179.0
X97.0Y-35.0
X97.0Y-55.0
X97.0Y-97.0
X97.0Y-117.0
X97.0Y-159.0
X97.0Y-179.0
T0
M30
